G04 PROTEUS GERBER X2 FILE*
%TF.GenerationSoftware,Labcenter,Proteus,8.13-SP0-Build31525*%
%TF.CreationDate,2023-02-16T13:29:28+00:00*%
%TF.FileFunction,Soldermask,Top*%
%TF.FilePolarity,Negative*%
%TF.Part,Single*%
%TF.SameCoordinates,{1a083b5a-91e7-4c28-9893-6f2ba5a781e2}*%
%FSLAX45Y45*%
%MOMM*%
G01*
%TA.AperFunction,Material*%
%ADD73C,1.270000*%
%AMPPAD024*
4,1,68,
1.016000,-1.270000,
-1.016000,-1.270000,
-1.042400,-1.268720,
-1.067930,-1.264950,
-1.092490,-1.258800,
-1.115960,-1.250400,
-1.138220,-1.239870,
-1.159150,-1.227300,
-1.178650,-1.212840,
-1.196580,-1.196580,
-1.212840,-1.178640,
-1.227300,-1.159150,
-1.239860,-1.138220,
-1.250400,-1.115960,
-1.258800,-1.092490,
-1.264950,-1.067930,
-1.268720,-1.042400,
-1.270000,-1.016000,
-1.270000,1.016000,
-1.268720,1.042400,
-1.264950,1.067930,
-1.258800,1.092490,
-1.250400,1.115960,
-1.239860,1.138220,
-1.227300,1.159150,
-1.212840,1.178640,
-1.196580,1.196580,
-1.178650,1.212840,
-1.159150,1.227300,
-1.138220,1.239870,
-1.115960,1.250400,
-1.092490,1.258800,
-1.067930,1.264950,
-1.042400,1.268720,
-1.016000,1.270000,
1.016000,1.270000,
1.042400,1.268720,
1.067930,1.264950,
1.092490,1.258800,
1.115960,1.250400,
1.138220,1.239870,
1.159150,1.227300,
1.178650,1.212840,
1.196580,1.196580,
1.212840,1.178640,
1.227300,1.159150,
1.239860,1.138220,
1.250400,1.115960,
1.258800,1.092490,
1.264950,1.067930,
1.268720,1.042400,
1.270000,1.016000,
1.270000,-1.016000,
1.268720,-1.042400,
1.264950,-1.067930,
1.258800,-1.092490,
1.250400,-1.115960,
1.239860,-1.138220,
1.227300,-1.159150,
1.212840,-1.178640,
1.196580,-1.196580,
1.178650,-1.212840,
1.159150,-1.227300,
1.138220,-1.239870,
1.115960,-1.250400,
1.092490,-1.258800,
1.067930,-1.264950,
1.042400,-1.268720,
1.016000,-1.270000,
0*%
%TA.AperFunction,Material*%
%ADD30PPAD024*%
%TA.AperFunction,Material*%
%ADD31C,3.810000*%
%AMPPAD026*
4,1,68,
-0.952500,1.206500,
0.952500,1.206500,
0.978900,1.205220,
1.004430,1.201450,
1.028990,1.195300,
1.052460,1.186900,
1.074720,1.176370,
1.095650,1.163800,
1.115150,1.149340,
1.133080,1.133080,
1.149340,1.115140,
1.163800,1.095650,
1.176360,1.074720,
1.186900,1.052460,
1.195300,1.028990,
1.201450,1.004430,
1.205220,0.978900,
1.206500,0.952500,
1.206500,-0.952500,
1.205220,-0.978900,
1.201450,-1.004430,
1.195300,-1.028990,
1.186900,-1.052460,
1.176360,-1.074720,
1.163800,-1.095650,
1.149340,-1.115140,
1.133080,-1.133080,
1.115150,-1.149340,
1.095650,-1.163800,
1.074720,-1.176370,
1.052460,-1.186900,
1.028990,-1.195300,
1.004430,-1.201450,
0.978900,-1.205220,
0.952500,-1.206500,
-0.952500,-1.206500,
-0.978900,-1.205220,
-1.004430,-1.201450,
-1.028990,-1.195300,
-1.052460,-1.186900,
-1.074720,-1.176370,
-1.095650,-1.163800,
-1.115150,-1.149340,
-1.133080,-1.133080,
-1.149340,-1.115140,
-1.163800,-1.095650,
-1.176360,-1.074720,
-1.186900,-1.052460,
-1.195300,-1.028990,
-1.201450,-1.004430,
-1.205220,-0.978900,
-1.206500,-0.952500,
-1.206500,0.952500,
-1.205220,0.978900,
-1.201450,1.004430,
-1.195300,1.028990,
-1.186900,1.052460,
-1.176360,1.074720,
-1.163800,1.095650,
-1.149340,1.115140,
-1.133080,1.133080,
-1.115150,1.149340,
-1.095650,1.163800,
-1.074720,1.176370,
-1.052460,1.186900,
-1.028990,1.195300,
-1.004430,1.201450,
-0.978900,1.205220,
-0.952500,1.206500,
0*%
%TA.AperFunction,Material*%
%ADD32PPAD026*%
%TA.AperFunction,Material*%
%ADD33C,3.302000*%
%ADD34C,7.366000*%
%TA.AperFunction,Material*%
%ADD35C,3.759200*%
%TA.AperFunction,Material*%
%ADD36C,2.794000*%
%ADD37C,2.286000*%
%AMPPAD032*
4,1,8,
0.509800,-1.397000,
-0.509800,-1.397000,
-0.889000,-1.017800,
-0.889000,1.017800,
-0.509800,1.397000,
0.509800,1.397000,
0.889000,1.017800,
0.889000,-1.017800,
0.509800,-1.397000,
0*%
%TA.AperFunction,Material*%
%ADD38PPAD032*%
%AMPPAD033*
4,1,68,
-0.635000,0.889000,
0.635000,0.889000,
0.661400,0.887720,
0.686930,0.883950,
0.711490,0.877800,
0.734960,0.869400,
0.757220,0.858870,
0.778150,0.846300,
0.797650,0.831840,
0.815580,0.815580,
0.831840,0.797640,
0.846300,0.778150,
0.858860,0.757220,
0.869400,0.734960,
0.877800,0.711490,
0.883950,0.686930,
0.887720,0.661400,
0.889000,0.635000,
0.889000,-0.635000,
0.887720,-0.661400,
0.883950,-0.686930,
0.877800,-0.711490,
0.869400,-0.734960,
0.858860,-0.757220,
0.846300,-0.778150,
0.831840,-0.797640,
0.815580,-0.815580,
0.797650,-0.831840,
0.778150,-0.846300,
0.757220,-0.858870,
0.734960,-0.869400,
0.711490,-0.877800,
0.686930,-0.883950,
0.661400,-0.887720,
0.635000,-0.889000,
-0.635000,-0.889000,
-0.661400,-0.887720,
-0.686930,-0.883950,
-0.711490,-0.877800,
-0.734960,-0.869400,
-0.757220,-0.858870,
-0.778150,-0.846300,
-0.797650,-0.831840,
-0.815580,-0.815580,
-0.831840,-0.797640,
-0.846300,-0.778150,
-0.858860,-0.757220,
-0.869400,-0.734960,
-0.877800,-0.711490,
-0.883950,-0.686930,
-0.887720,-0.661400,
-0.889000,-0.635000,
-0.889000,0.635000,
-0.887720,0.661400,
-0.883950,0.686930,
-0.877800,0.711490,
-0.869400,0.734960,
-0.858860,0.757220,
-0.846300,0.778150,
-0.831840,0.797640,
-0.815580,0.815580,
-0.797650,0.831840,
-0.778150,0.846300,
-0.757220,0.858870,
-0.734960,0.869400,
-0.711490,0.877800,
-0.686930,0.883950,
-0.661400,0.887720,
-0.635000,0.889000,
0*%
%TA.AperFunction,Material*%
%ADD39PPAD033*%
%ADD40C,1.778000*%
%TA.AperFunction,Material*%
%ADD41C,2.032000*%
%TA.AperFunction,Material*%
%ADD42C,2.540000*%
%TA.AperFunction,Profile*%
%ADD28C,0.203200*%
%TD.AperFunction*%
D73*
X-4254500Y-2349500D03*
X-2857500Y-1397000D03*
X-2095500Y-1651000D03*
X+1778000Y-4445000D03*
X-1460500Y-1905000D03*
X-3844842Y-1756174D03*
X-1583494Y-2074881D03*
X-4365402Y-1698601D03*
X-1590828Y-2261758D03*
X-4159250Y-1911350D03*
X-1397000Y-3429000D03*
X+1524000Y-2349500D03*
D30*
X+3429000Y+4445000D03*
X+3175000Y+4445000D03*
X+2921000Y+4445000D03*
X+2159000Y+4445000D03*
X+1905000Y+4445000D03*
X+1651000Y+4445000D03*
X+889000Y+4445000D03*
X+635000Y+4445000D03*
X+381000Y+4445000D03*
X-381000Y+4445000D03*
X-635000Y+4445000D03*
X-889000Y+4445000D03*
X-1930400Y+4457700D03*
X-2184400Y+4457700D03*
X-2438400Y+4457700D03*
X-3175000Y+4445000D03*
X-3429000Y+4445000D03*
X-3683000Y+4445000D03*
D31*
X+4000500Y+2082800D03*
X+4000500Y+1320800D03*
D32*
X+2546351Y-3625849D03*
X+2800351Y-3625849D03*
X+3054351Y-3625849D03*
X+3308351Y-3625849D03*
X+3308351Y-2863849D03*
X+3054351Y-2863849D03*
X+2800351Y-2863849D03*
X+2546351Y-2863849D03*
D33*
X+2743200Y-2260600D03*
X+2743200Y-1498600D03*
D34*
X+1955800Y+1981200D03*
X+1968500Y-584200D03*
D31*
X-4038600Y+2070100D03*
X-4038600Y+1308100D03*
D33*
X-3987800Y+482600D03*
X-3987800Y-279400D03*
D35*
X+2679700Y+3251200D03*
X-2717800Y+3251200D03*
X-1473200Y+3251200D03*
X+1727200Y+3251200D03*
D36*
X+3810000Y-4203700D03*
X+2794000Y-4203700D03*
D37*
X+3581400Y-3898900D03*
X+3835400Y-3898900D03*
X+3810000Y-2857500D03*
X+3810000Y-3613500D03*
X+3423000Y-2603500D03*
X+2667000Y-2603500D03*
X+3581400Y-3613500D03*
X+3581400Y-2857500D03*
D35*
X-4495800Y-4381500D03*
X+4457700Y-4470400D03*
D30*
X+4394200Y-2070100D03*
X+4140200Y-2070100D03*
X+3886200Y-2070100D03*
D31*
X+4394200Y+368300D03*
X+3893820Y+368300D03*
D30*
X+215900Y-1905000D03*
X-38100Y-1905000D03*
X-292100Y-1905000D03*
D31*
X+215900Y+533400D03*
X-284480Y+533400D03*
D35*
X-4521200Y+4508500D03*
X+4432300Y+4419600D03*
D33*
X-2578100Y+1371600D03*
X-2578100Y+2133600D03*
X-584200Y+1358900D03*
X-584200Y+2120900D03*
X-1612900Y+787400D03*
X-1612900Y+25400D03*
D38*
X-952500Y-1054100D03*
X-1206500Y-1054100D03*
X-1460500Y-1054100D03*
X-1714500Y-1054100D03*
X-1968500Y-1054100D03*
X-2222500Y-1054100D03*
X-2476500Y-1054100D03*
X-2730500Y-1054100D03*
X-2984500Y-1054100D03*
X-3238500Y-1054100D03*
X-3492500Y-1054100D03*
X-3746500Y-1054100D03*
X-4000500Y-1054100D03*
X-4254500Y-1054100D03*
X-4508500Y-1054100D03*
X-4508500Y-2578100D03*
X-4254500Y-2578100D03*
X-4000500Y-2578100D03*
X-3746500Y-2578100D03*
X-3492500Y-2578100D03*
X-3238500Y-2578100D03*
X-2984500Y-2578100D03*
X-2730500Y-2578100D03*
X-2476500Y-2578100D03*
X-2222500Y-2578100D03*
X-1968500Y-2578100D03*
X-1714500Y-2578100D03*
X-1460500Y-2578100D03*
X-1206500Y-2578100D03*
X-952500Y-2578100D03*
D31*
X-1079500Y-3302000D03*
X-571500Y-3302000D03*
X-825500Y-3048000D03*
D37*
X+4025900Y-3613500D03*
X+4025900Y-2857500D03*
X-68580Y-2501900D03*
X-68580Y-3257900D03*
X+4508500Y+3886200D03*
X+4508500Y+2870200D03*
X+2882900Y-4648200D03*
X+3898900Y-4648200D03*
X+1978660Y-2275840D03*
X+1222660Y-2275840D03*
X+160020Y-2520600D03*
X+160020Y-3276600D03*
D39*
X+4363914Y-3492501D03*
D40*
X+4617914Y-3492501D03*
X+4617914Y-2730501D03*
X+4363914Y-2730501D03*
D33*
X+1752600Y-1854200D03*
X+1752600Y-1346200D03*
D30*
X-4381500Y-3835400D03*
X-3873500Y-3835400D03*
X-3873500Y-3060700D03*
X-4381500Y-3060700D03*
X-3238500Y-3822700D03*
X-2730500Y-3822700D03*
X-2730500Y-3048000D03*
X-3238500Y-3048000D03*
X-2159000Y-3822700D03*
X-1651000Y-3822700D03*
X-1651000Y-3048000D03*
X-2159000Y-3048000D03*
D33*
X+1785620Y-2738120D03*
X+1785620Y-3246120D03*
D36*
X+1940560Y-3860800D03*
X+924560Y-3860800D03*
X-1645920Y-4231640D03*
X-629920Y-4231640D03*
D30*
X-1722120Y-637540D03*
X-1976120Y-637540D03*
X-2230120Y-637540D03*
X-2484120Y-637540D03*
D37*
X+388620Y-2520600D03*
X+388620Y-3276600D03*
X+607073Y-3257901D03*
X+607073Y-2501901D03*
D39*
X-160020Y-4495800D03*
D40*
X+93980Y-4495800D03*
X+347980Y-4495800D03*
X+601980Y-4495800D03*
X+601980Y-3733800D03*
X+347980Y-3733800D03*
X+93980Y-3733800D03*
X-160020Y-3733800D03*
D41*
X+949960Y-4490720D03*
X+1153160Y-4490720D03*
X+1356360Y-4490720D03*
D30*
X+2174240Y-4239260D03*
X+1920240Y-4239260D03*
X+1666240Y-4239260D03*
D42*
X+899160Y-2032000D03*
X+899160Y-3556000D03*
D28*
X-4826000Y-4800600D02*
X+4851400Y-4800600D01*
X+4851400Y+4813300D01*
X-4826000Y+4813300D01*
X-4826000Y-4800600D01*
M02*
