G04 PROTEUS GERBER X2 FILE*
%TF.GenerationSoftware,Labcenter,Proteus,8.13-SP0-Build31525*%
%TF.CreationDate,2023-02-16T13:29:28+00:00*%
%TF.FileFunction,Legend,Top*%
%TF.FilePolarity,Positive*%
%TF.Part,Single*%
%TF.SameCoordinates,{1a083b5a-91e7-4c28-9893-6f2ba5a781e2}*%
%FSLAX45Y45*%
%MOMM*%
G01*
%TA.AperFunction,Material*%
%ADD72C,0.203200*%
%TA.AperFunction,Profile*%
%ADD28C,0.203200*%
%TD.AperFunction*%
D72*
X+2794000Y+4318000D02*
X+3556000Y+4318000D01*
X+3556000Y+4572000D01*
X+2794000Y+4572000D01*
X+2794000Y+4318000D01*
X+3556000Y+4318000D02*
X+3556000Y+4191000D01*
X+2794000Y+4191000D01*
X+2794000Y+4318000D01*
X+3556000Y+4318000D02*
X+3429000Y+4191000D01*
X+3429000Y+4318000D02*
X+3302000Y+4191000D01*
X+3302000Y+4318000D02*
X+3175000Y+4191000D01*
X+3175000Y+4318000D02*
X+3048000Y+4191000D01*
X+3048000Y+4318000D02*
X+2921000Y+4191000D01*
X+2921000Y+4318000D02*
X+2794000Y+4191000D01*
X+3048000Y+4119880D02*
X+3079750Y+4150360D01*
X+3111500Y+4150360D01*
X+3143250Y+4119880D01*
X+3143250Y+4089400D01*
X+3111500Y+4058920D01*
X+3079750Y+4058920D01*
X+3048000Y+4089400D01*
X+3048000Y+4119880D01*
X+3111500Y+4089400D02*
X+3143250Y+4058920D01*
X+3206750Y+4119880D02*
X+3238500Y+4150360D01*
X+3238500Y+4058920D01*
X+1524000Y+4318000D02*
X+2286000Y+4318000D01*
X+2286000Y+4572000D01*
X+1524000Y+4572000D01*
X+1524000Y+4318000D01*
X+2286000Y+4318000D02*
X+2286000Y+4191000D01*
X+1524000Y+4191000D01*
X+1524000Y+4318000D01*
X+2286000Y+4318000D02*
X+2159000Y+4191000D01*
X+2159000Y+4318000D02*
X+2032000Y+4191000D01*
X+2032000Y+4318000D02*
X+1905000Y+4191000D01*
X+1905000Y+4318000D02*
X+1778000Y+4191000D01*
X+1778000Y+4318000D02*
X+1651000Y+4191000D01*
X+1651000Y+4318000D02*
X+1524000Y+4191000D01*
X+1778000Y+4119880D02*
X+1809750Y+4150360D01*
X+1841500Y+4150360D01*
X+1873250Y+4119880D01*
X+1873250Y+4089400D01*
X+1841500Y+4058920D01*
X+1809750Y+4058920D01*
X+1778000Y+4089400D01*
X+1778000Y+4119880D01*
X+1841500Y+4089400D02*
X+1873250Y+4058920D01*
X+1920875Y+4135120D02*
X+1936750Y+4150360D01*
X+1984375Y+4150360D01*
X+2000250Y+4135120D01*
X+2000250Y+4119880D01*
X+1984375Y+4104640D01*
X+1936750Y+4104640D01*
X+1920875Y+4089400D01*
X+1920875Y+4058920D01*
X+2000250Y+4058920D01*
X+254000Y+4318000D02*
X+1016000Y+4318000D01*
X+1016000Y+4572000D01*
X+254000Y+4572000D01*
X+254000Y+4318000D01*
X+1016000Y+4318000D02*
X+1016000Y+4191000D01*
X+254000Y+4191000D01*
X+254000Y+4318000D01*
X+1016000Y+4318000D02*
X+889000Y+4191000D01*
X+889000Y+4318000D02*
X+762000Y+4191000D01*
X+762000Y+4318000D02*
X+635000Y+4191000D01*
X+635000Y+4318000D02*
X+508000Y+4191000D01*
X+508000Y+4318000D02*
X+381000Y+4191000D01*
X+381000Y+4318000D02*
X+254000Y+4191000D01*
X+508000Y+4119880D02*
X+539750Y+4150360D01*
X+571500Y+4150360D01*
X+603250Y+4119880D01*
X+603250Y+4089400D01*
X+571500Y+4058920D01*
X+539750Y+4058920D01*
X+508000Y+4089400D01*
X+508000Y+4119880D01*
X+571500Y+4089400D02*
X+603250Y+4058920D01*
X+650875Y+4135120D02*
X+666750Y+4150360D01*
X+714375Y+4150360D01*
X+730250Y+4135120D01*
X+730250Y+4119880D01*
X+714375Y+4104640D01*
X+730250Y+4089400D01*
X+730250Y+4074160D01*
X+714375Y+4058920D01*
X+666750Y+4058920D01*
X+650875Y+4074160D01*
X+682625Y+4104640D02*
X+714375Y+4104640D01*
X-1016000Y+4318000D02*
X-254000Y+4318000D01*
X-254000Y+4572000D01*
X-1016000Y+4572000D01*
X-1016000Y+4318000D01*
X-254000Y+4318000D02*
X-254000Y+4191000D01*
X-1016000Y+4191000D01*
X-1016000Y+4318000D01*
X-254000Y+4318000D02*
X-381000Y+4191000D01*
X-381000Y+4318000D02*
X-508000Y+4191000D01*
X-508000Y+4318000D02*
X-635000Y+4191000D01*
X-635000Y+4318000D02*
X-762000Y+4191000D01*
X-762000Y+4318000D02*
X-889000Y+4191000D01*
X-889000Y+4318000D02*
X-1016000Y+4191000D01*
X-749300Y+4107180D02*
X-717550Y+4137660D01*
X-685800Y+4137660D01*
X-654050Y+4107180D01*
X-654050Y+4076700D01*
X-685800Y+4046220D01*
X-717550Y+4046220D01*
X-749300Y+4076700D01*
X-749300Y+4107180D01*
X-685800Y+4076700D02*
X-654050Y+4046220D01*
X-527050Y+4076700D02*
X-622300Y+4076700D01*
X-558800Y+4137660D01*
X-558800Y+4046220D01*
X-2565400Y+4330700D02*
X-1803400Y+4330700D01*
X-1803400Y+4584700D01*
X-2565400Y+4584700D01*
X-2565400Y+4330700D01*
X-1803400Y+4330700D02*
X-1803400Y+4203700D01*
X-2565400Y+4203700D01*
X-2565400Y+4330700D01*
X-1803400Y+4330700D02*
X-1930400Y+4203700D01*
X-1930400Y+4330700D02*
X-2057400Y+4203700D01*
X-2057400Y+4330700D02*
X-2184400Y+4203700D01*
X-2184400Y+4330700D02*
X-2311400Y+4203700D01*
X-2311400Y+4330700D02*
X-2438400Y+4203700D01*
X-2438400Y+4330700D02*
X-2565400Y+4203700D01*
X-2311400Y+4071620D02*
X-2311400Y+4163060D01*
X-2247900Y+4163060D01*
X-2216150Y+4132580D01*
X-2216150Y+4102100D01*
X-2247900Y+4071620D01*
X-2311400Y+4071620D01*
X-2168525Y+4147820D02*
X-2152650Y+4163060D01*
X-2105025Y+4163060D01*
X-2089150Y+4147820D01*
X-2089150Y+4132580D01*
X-2105025Y+4117340D01*
X-2152650Y+4117340D01*
X-2168525Y+4102100D01*
X-2168525Y+4071620D01*
X-2089150Y+4071620D01*
X-3810000Y+4318000D02*
X-3048000Y+4318000D01*
X-3048000Y+4572000D01*
X-3810000Y+4572000D01*
X-3810000Y+4318000D01*
X-3048000Y+4318000D02*
X-3048000Y+4191000D01*
X-3810000Y+4191000D01*
X-3810000Y+4318000D01*
X-3048000Y+4318000D02*
X-3175000Y+4191000D01*
X-3175000Y+4318000D02*
X-3302000Y+4191000D01*
X-3302000Y+4318000D02*
X-3429000Y+4191000D01*
X-3429000Y+4318000D02*
X-3556000Y+4191000D01*
X-3556000Y+4318000D02*
X-3683000Y+4191000D01*
X-3683000Y+4318000D02*
X-3810000Y+4191000D01*
X-3556000Y+4058920D02*
X-3556000Y+4150360D01*
X-3492500Y+4150360D01*
X-3460750Y+4119880D01*
X-3460750Y+4089400D01*
X-3492500Y+4058920D01*
X-3556000Y+4058920D01*
X-3413125Y+4135120D02*
X-3397250Y+4150360D01*
X-3349625Y+4150360D01*
X-3333750Y+4135120D01*
X-3333750Y+4119880D01*
X-3349625Y+4104640D01*
X-3333750Y+4089400D01*
X-3333750Y+4074160D01*
X-3349625Y+4058920D01*
X-3397250Y+4058920D01*
X-3413125Y+4074160D01*
X-3381375Y+4104640D02*
X-3349625Y+4104640D01*
X+3390900Y+939800D02*
X+4610100Y+939800D01*
X+4610100Y+2463800D01*
X+3390900Y+2463800D01*
X+3390900Y+939800D01*
X+4808220Y+1460500D02*
X+4686300Y+1460500D01*
X+4686300Y+1571625D01*
X+4706620Y+1593850D01*
X+4726940Y+1593850D01*
X+4747260Y+1571625D01*
X+4767580Y+1593850D01*
X+4787900Y+1593850D01*
X+4808220Y+1571625D01*
X+4808220Y+1460500D01*
X+4747260Y+1460500D02*
X+4747260Y+1571625D01*
X+4808220Y+1638300D02*
X+4726940Y+1638300D01*
X+4686300Y+1682750D01*
X+4686300Y+1727200D01*
X+4726940Y+1771650D01*
X+4808220Y+1771650D01*
X+4767580Y+1638300D02*
X+4767580Y+1771650D01*
X+4686300Y+1816100D02*
X+4686300Y+1949450D01*
X+4686300Y+1882775D02*
X+4808220Y+1882775D01*
X+2419351Y-3117849D02*
X+2419351Y-2990849D01*
X+3435351Y-2990849D01*
X+3435351Y-3498849D01*
X+2419351Y-3498849D01*
X+2419351Y-3371849D01*
X+2546351Y-3244849D02*
X+2543915Y-3218973D01*
X+2536866Y-3195002D01*
X+2525590Y-3173412D01*
X+2510474Y-3154679D01*
X+2491905Y-3139280D01*
X+2470270Y-3127692D01*
X+2445956Y-3120389D01*
X+2419351Y-3117849D01*
X+2546351Y-3244849D02*
X+2543915Y-3271455D01*
X+2536866Y-3295768D01*
X+2525590Y-3317403D01*
X+2510474Y-3335972D01*
X+2491905Y-3351087D01*
X+2470270Y-3362364D01*
X+2445956Y-3369413D01*
X+2419351Y-3371849D01*
X+2795271Y-3371849D02*
X+2871471Y-3371849D01*
X+2886711Y-3355974D01*
X+2886711Y-3292474D01*
X+2871471Y-3276599D01*
X+2795271Y-3276599D01*
X+2810511Y-3228974D02*
X+2795271Y-3213099D01*
X+2795271Y-3165474D01*
X+2810511Y-3149599D01*
X+2825751Y-3149599D01*
X+2840991Y-3165474D01*
X+2856231Y-3149599D01*
X+2871471Y-3149599D01*
X+2886711Y-3165474D01*
X+2886711Y-3213099D01*
X+2871471Y-3228974D01*
X+2840991Y-3197224D02*
X+2840991Y-3165474D01*
X+3314700Y-1879600D02*
X+3313013Y-1836216D01*
X+3299331Y-1749446D01*
X+3270877Y-1662676D01*
X+3224971Y-1575906D01*
X+3155644Y-1489136D01*
X+3068929Y-1416707D01*
X+2982159Y-1368655D01*
X+2895389Y-1338490D01*
X+2808619Y-1323292D01*
X+2755900Y-1320800D01*
X+2197100Y-1879600D02*
X+2198787Y-1836216D01*
X+2212469Y-1749446D01*
X+2240923Y-1662676D01*
X+2286829Y-1575906D01*
X+2356156Y-1489136D01*
X+2442871Y-1416707D01*
X+2529641Y-1368655D01*
X+2616411Y-1338490D01*
X+2703181Y-1323292D01*
X+2755900Y-1320800D01*
X+2197100Y-1879600D02*
X+2198787Y-1922984D01*
X+2212469Y-2009754D01*
X+2240923Y-2096524D01*
X+2286829Y-2183294D01*
X+2356156Y-2270064D01*
X+2442871Y-2342493D01*
X+2529641Y-2390545D01*
X+2616411Y-2420710D01*
X+2703181Y-2435908D01*
X+2755900Y-2438400D01*
X+3314700Y-1879600D02*
X+3313013Y-1922984D01*
X+3299331Y-2009754D01*
X+3270877Y-2096524D01*
X+3224971Y-2183294D01*
X+3155644Y-2270064D01*
X+3068929Y-2342493D01*
X+2982159Y-2390545D01*
X+2895389Y-2420710D01*
X+2808619Y-2435908D01*
X+2755900Y-2438400D01*
X+2344420Y-2070100D02*
X+2435860Y-2070100D01*
X+2435860Y-1974850D01*
X+2374900Y-1911350D02*
X+2344420Y-1879600D01*
X+2435860Y-1879600D01*
X+685800Y-939800D02*
X+3289300Y-939800D01*
X+3289300Y+2298700D01*
X+685800Y+2298700D01*
X+685800Y-939800D01*
X+1932940Y+1054100D02*
X+2024380Y+1054100D01*
X+2024380Y+1149350D01*
X+1948180Y+1196975D02*
X+1932940Y+1212850D01*
X+1932940Y+1260475D01*
X+1948180Y+1276350D01*
X+1963420Y+1276350D01*
X+1978660Y+1260475D01*
X+1978660Y+1212850D01*
X+1993900Y+1196975D01*
X+2024380Y+1196975D01*
X+2024380Y+1276350D01*
X-4648200Y+927100D02*
X-3429000Y+927100D01*
X-3429000Y+2451100D01*
X-4648200Y+2451100D01*
X-4648200Y+927100D01*
X-4782820Y+2133600D02*
X-4798060Y+2117725D01*
X-4798060Y+2054225D01*
X-4782820Y+2038350D01*
X-4767580Y+2038350D01*
X-4752340Y+2054225D01*
X-4752340Y+2117725D01*
X-4737100Y+2133600D01*
X-4721860Y+2133600D01*
X-4706620Y+2117725D01*
X-4706620Y+2054225D01*
X-4721860Y+2038350D01*
X-4737100Y+2006600D02*
X-4706620Y+1974850D01*
X-4706620Y+1943100D01*
X-4737100Y+1911350D01*
X-4767580Y+1911350D01*
X-4798060Y+1943100D01*
X-4798060Y+1974850D01*
X-4767580Y+2006600D01*
X-4737100Y+2006600D01*
X-4706620Y+1879600D02*
X-4798060Y+1879600D01*
X-4798060Y+1784350D01*
X-4798060Y+1752600D02*
X-4737100Y+1752600D01*
X-4706620Y+1720850D01*
X-4706620Y+1689100D01*
X-4737100Y+1657350D01*
X-4798060Y+1657350D01*
X-4767580Y+1752600D02*
X-4767580Y+1657350D01*
X-4798060Y+1625600D02*
X-4706620Y+1625600D01*
X-4706620Y+1546225D01*
X-4721860Y+1530350D01*
X-4737100Y+1530350D01*
X-4752340Y+1546225D01*
X-4752340Y+1625600D01*
X-4752340Y+1546225D02*
X-4767580Y+1530350D01*
X-4798060Y+1530350D01*
X-3225800Y+101600D02*
X-3227990Y+159326D01*
X-3245740Y+274780D01*
X-3282581Y+390234D01*
X-3341768Y+505688D01*
X-3430377Y+621142D01*
X-3545165Y+721857D01*
X-3660619Y+789784D01*
X-3776073Y+833594D01*
X-3891527Y+857494D01*
X-3987800Y+863600D01*
X-4749800Y+101600D02*
X-4747610Y+159326D01*
X-4729860Y+274780D01*
X-4693019Y+390234D01*
X-4633832Y+505688D01*
X-4545223Y+621142D01*
X-4430435Y+721857D01*
X-4314981Y+789784D01*
X-4199527Y+833594D01*
X-4084073Y+857494D01*
X-3987800Y+863600D01*
X-4749800Y+101600D02*
X-4747610Y+43874D01*
X-4729860Y-71580D01*
X-4693019Y-187034D01*
X-4633832Y-302488D01*
X-4545223Y-417942D01*
X-4430435Y-518657D01*
X-4314981Y-586584D01*
X-4199527Y-630394D01*
X-4084073Y-654294D01*
X-3987800Y-660400D01*
X-3225800Y+101600D02*
X-3227990Y+43874D01*
X-3245740Y-71580D01*
X-3282581Y-187034D01*
X-3341768Y-302488D01*
X-3430377Y-417942D01*
X-3545165Y-518657D01*
X-3660619Y-586584D01*
X-3776073Y-630394D01*
X-3891527Y-654294D01*
X-3987800Y-660400D01*
X-3606800Y+609600D02*
X-3606800Y+482600D01*
X-3543300Y+546100D02*
X-3670300Y+546100D01*
X-3616960Y+133350D02*
X-3601720Y+117475D01*
X-3601720Y+69850D01*
X-3632200Y+38100D01*
X-3662680Y+38100D01*
X-3693160Y+69850D01*
X-3693160Y+117475D01*
X-3677920Y+133350D01*
X-3677920Y+180975D02*
X-3693160Y+196850D01*
X-3693160Y+244475D01*
X-3677920Y+260350D01*
X-3662680Y+260350D01*
X-3647440Y+244475D01*
X-3632200Y+260350D01*
X-3616960Y+260350D01*
X-3601720Y+244475D01*
X-3601720Y+196850D01*
X-3616960Y+180975D01*
X-3647440Y+212725D02*
X-3647440Y+244475D01*
X-4381500Y+2565400D02*
X+4191000Y+2565400D01*
X+4191000Y+4165600D01*
X-4381500Y+4165600D01*
X-4381500Y+2565400D01*
X+3683000Y+4013200D02*
X+2921000Y+4013200D01*
X+2413000Y+4025900D02*
X+1651000Y+4025900D01*
X+1143000Y+4025900D02*
X+381000Y+4025900D01*
X-127000Y+4025900D02*
X-889000Y+4025900D01*
X-1397000Y+4025900D02*
X-2159000Y+4025900D01*
X-2667000Y+4025900D02*
X-3429000Y+4025900D01*
D28*
X-4826000Y-4800600D02*
X+4851400Y-4800600D01*
X+4851400Y+4813300D01*
X-4826000Y+4813300D01*
X-4826000Y-4800600D01*
D72*
X+3042920Y-4335780D02*
X+3561080Y-4335780D01*
X+3561080Y-4069080D01*
X+3042920Y-4069080D01*
X+3042920Y-4335780D01*
X+3124200Y-4071620D02*
X+3124200Y-4333240D01*
X+2971800Y-4203700D02*
X+3042920Y-4203700D01*
X+3561080Y-4203700D02*
X+3632200Y-4203700D01*
X+3175000Y-4282440D02*
X+3175000Y-4191000D01*
X+3238500Y-4191000D01*
X+3270250Y-4221480D01*
X+3270250Y-4251960D01*
X+3238500Y-4282440D01*
X+3175000Y-4282440D01*
X+3333750Y-4221480D02*
X+3365500Y-4191000D01*
X+3365500Y-4282440D01*
X+3454400Y-3898900D02*
X+3459480Y-3873024D01*
X+3474085Y-3849052D01*
X+3497262Y-3827462D01*
X+3528060Y-3808730D01*
X+3565525Y-3793331D01*
X+3608705Y-3781742D01*
X+3656648Y-3774440D01*
X+3708400Y-3771900D01*
X+3962400Y-3898900D02*
X+3957320Y-3873024D01*
X+3942715Y-3849052D01*
X+3919538Y-3827462D01*
X+3888740Y-3808730D01*
X+3851275Y-3793331D01*
X+3808095Y-3781742D01*
X+3760152Y-3774440D01*
X+3708400Y-3771900D01*
X+3454400Y-3898900D02*
X+3459480Y-3924776D01*
X+3474085Y-3948748D01*
X+3497262Y-3970338D01*
X+3528060Y-3989070D01*
X+3565525Y-4004469D01*
X+3608705Y-4016058D01*
X+3656648Y-4023360D01*
X+3708400Y-4025900D01*
X+3962400Y-3898900D02*
X+3957320Y-3924776D01*
X+3942715Y-3948748D01*
X+3919538Y-3970338D01*
X+3888740Y-3989070D01*
X+3851275Y-4004469D01*
X+3808095Y-4016058D01*
X+3760152Y-4023360D01*
X+3708400Y-4025900D01*
X+4235450Y-3906520D02*
X+4219575Y-3921760D01*
X+4171950Y-3921760D01*
X+4140200Y-3891280D01*
X+4140200Y-3860800D01*
X+4171950Y-3830320D01*
X+4219575Y-3830320D01*
X+4235450Y-3845560D01*
X+4298950Y-3860800D02*
X+4330700Y-3830320D01*
X+4330700Y-3921760D01*
X+3810000Y-2984500D02*
X+3810000Y-3061500D01*
X+3736500Y-3409500D02*
X+3893500Y-3409500D01*
X+3893500Y-3061500D01*
X+3736500Y-3061500D01*
X+3736500Y-3409500D01*
X+3810000Y-3409500D02*
X+3810000Y-3486500D01*
X+3868420Y-3365500D02*
X+3776980Y-3365500D01*
X+3776980Y-3286125D01*
X+3792220Y-3270250D01*
X+3807460Y-3270250D01*
X+3822700Y-3286125D01*
X+3822700Y-3365500D01*
X+3822700Y-3286125D02*
X+3837940Y-3270250D01*
X+3868420Y-3270250D01*
X+3776980Y-3143250D02*
X+3776980Y-3222625D01*
X+3807460Y-3222625D01*
X+3807460Y-3159125D01*
X+3822700Y-3143250D01*
X+3853180Y-3143250D01*
X+3868420Y-3159125D01*
X+3868420Y-3206750D01*
X+3853180Y-3222625D01*
X+3296000Y-2603500D02*
X+3219000Y-2603500D01*
X+2871000Y-2687000D02*
X+3219000Y-2687000D01*
X+3219000Y-2530000D01*
X+2871000Y-2530000D01*
X+2871000Y-2687000D01*
X+2871000Y-2603500D02*
X+2794000Y-2603500D01*
X+2927700Y-2659380D02*
X+2927700Y-2567940D01*
X+3007075Y-2567940D01*
X+3022950Y-2583180D01*
X+3022950Y-2598420D01*
X+3007075Y-2613660D01*
X+2927700Y-2613660D01*
X+3007075Y-2613660D02*
X+3022950Y-2628900D01*
X+3022950Y-2659380D01*
X+3070575Y-2583180D02*
X+3086450Y-2567940D01*
X+3134075Y-2567940D01*
X+3149950Y-2583180D01*
X+3149950Y-2598420D01*
X+3134075Y-2613660D01*
X+3149950Y-2628900D01*
X+3149950Y-2644140D01*
X+3134075Y-2659380D01*
X+3086450Y-2659380D01*
X+3070575Y-2644140D01*
X+3102325Y-2613660D02*
X+3134075Y-2613660D01*
X+3581400Y-3486500D02*
X+3581400Y-3409500D01*
X+3497900Y-3409500D02*
X+3654900Y-3409500D01*
X+3654900Y-3061500D01*
X+3497900Y-3061500D01*
X+3497900Y-3409500D01*
X+3581400Y-3061500D02*
X+3581400Y-2984500D01*
X+3639820Y-3346800D02*
X+3548380Y-3346800D01*
X+3548380Y-3267425D01*
X+3563620Y-3251550D01*
X+3578860Y-3251550D01*
X+3594100Y-3267425D01*
X+3594100Y-3346800D01*
X+3594100Y-3267425D02*
X+3609340Y-3251550D01*
X+3639820Y-3251550D01*
X+3609340Y-3124550D02*
X+3609340Y-3219800D01*
X+3548380Y-3156300D01*
X+3639820Y-3156300D01*
X+3619500Y-2527300D02*
X+4660900Y-2527300D01*
X+4660900Y+749300D01*
X+3619500Y+749300D01*
X+3619500Y-2527300D01*
X+3759200Y-2197100D02*
X+4521200Y-2197100D01*
X+4521200Y-1943100D01*
X+3759200Y-1943100D01*
X+3759200Y-2197100D01*
X+4701540Y-1016000D02*
X+4777740Y-1016000D01*
X+4792980Y-1000125D01*
X+4792980Y-936625D01*
X+4777740Y-920750D01*
X+4701540Y-920750D01*
X+4716780Y-873125D02*
X+4701540Y-857250D01*
X+4701540Y-809625D01*
X+4716780Y-793750D01*
X+4732020Y-793750D01*
X+4747260Y-809625D01*
X+4747260Y-857250D01*
X+4762500Y-873125D01*
X+4792980Y-873125D01*
X+4792980Y-793750D01*
X-558800Y-2362200D02*
X+482600Y-2362200D01*
X+482600Y+914400D01*
X-558800Y+914400D01*
X-558800Y-2362200D01*
X-419100Y-2032000D02*
X+342900Y-2032000D01*
X+342900Y-1778000D01*
X-419100Y-1778000D01*
X-419100Y-2032000D01*
X+167640Y-647700D02*
X+243840Y-647700D01*
X+259080Y-631825D01*
X+259080Y-568325D01*
X+243840Y-552450D01*
X+167640Y-552450D01*
X+228600Y-425450D02*
X+228600Y-520700D01*
X+167640Y-457200D01*
X+259080Y-457200D01*
X-1816100Y+1752600D02*
X-1818290Y+1810326D01*
X-1836040Y+1925780D01*
X-1872881Y+2041234D01*
X-1932068Y+2156688D01*
X-2020677Y+2272142D01*
X-2135465Y+2372857D01*
X-2250919Y+2440784D01*
X-2366373Y+2484594D01*
X-2481827Y+2508494D01*
X-2578100Y+2514600D01*
X-3340100Y+1752600D02*
X-3337910Y+1810326D01*
X-3320160Y+1925780D01*
X-3283319Y+2041234D01*
X-3224132Y+2156688D01*
X-3135523Y+2272142D01*
X-3020735Y+2372857D01*
X-2905281Y+2440784D01*
X-2789827Y+2484594D01*
X-2674373Y+2508494D01*
X-2578100Y+2514600D01*
X-3340100Y+1752600D02*
X-3337910Y+1694874D01*
X-3320160Y+1579420D01*
X-3283319Y+1463966D01*
X-3224132Y+1348512D01*
X-3135523Y+1233058D01*
X-3020735Y+1132343D01*
X-2905281Y+1064416D01*
X-2789827Y+1020606D01*
X-2674373Y+996706D01*
X-2578100Y+990600D01*
X-1816100Y+1752600D02*
X-1818290Y+1694874D01*
X-1836040Y+1579420D01*
X-1872881Y+1463966D01*
X-1932068Y+1348512D01*
X-2020677Y+1233058D01*
X-2135465Y+1132343D01*
X-2250919Y+1064416D01*
X-2366373Y+1020606D01*
X-2481827Y+996706D01*
X-2578100Y+990600D01*
X-2959100Y+1244600D02*
X-2959100Y+1371600D01*
X-3022600Y+1308100D02*
X-2895600Y+1308100D01*
X-3027680Y+1771650D02*
X-3012440Y+1755775D01*
X-3012440Y+1708150D01*
X-3042920Y+1676400D01*
X-3073400Y+1676400D01*
X-3103880Y+1708150D01*
X-3103880Y+1755775D01*
X-3088640Y+1771650D01*
X-3042920Y+1898650D02*
X-3042920Y+1803400D01*
X-3103880Y+1866900D01*
X-3012440Y+1866900D01*
X+177800Y+1739900D02*
X+175610Y+1797626D01*
X+157860Y+1913080D01*
X+121019Y+2028534D01*
X+61832Y+2143988D01*
X-26777Y+2259442D01*
X-141565Y+2360157D01*
X-257019Y+2428084D01*
X-372473Y+2471894D01*
X-487927Y+2495794D01*
X-584200Y+2501900D01*
X-1346200Y+1739900D02*
X-1344010Y+1797626D01*
X-1326260Y+1913080D01*
X-1289419Y+2028534D01*
X-1230232Y+2143988D01*
X-1141623Y+2259442D01*
X-1026835Y+2360157D01*
X-911381Y+2428084D01*
X-795927Y+2471894D01*
X-680473Y+2495794D01*
X-584200Y+2501900D01*
X-1346200Y+1739900D02*
X-1344010Y+1682174D01*
X-1326260Y+1566720D01*
X-1289419Y+1451266D01*
X-1230232Y+1335812D01*
X-1141623Y+1220358D01*
X-1026835Y+1119643D01*
X-911381Y+1051716D01*
X-795927Y+1007906D01*
X-680473Y+984006D01*
X-584200Y+977900D01*
X+177800Y+1739900D02*
X+175610Y+1682174D01*
X+157860Y+1566720D01*
X+121019Y+1451266D01*
X+61832Y+1335812D01*
X-26777Y+1220358D01*
X-141565Y+1119643D01*
X-257019Y+1051716D01*
X-372473Y+1007906D01*
X-487927Y+984006D01*
X-584200Y+977900D01*
X-965200Y+1231900D02*
X-965200Y+1358900D01*
X-1028700Y+1295400D02*
X-901700Y+1295400D01*
X-1008380Y+1746250D02*
X-993140Y+1730375D01*
X-993140Y+1682750D01*
X-1023620Y+1651000D01*
X-1054100Y+1651000D01*
X-1084580Y+1682750D01*
X-1084580Y+1730375D01*
X-1069340Y+1746250D01*
X-1084580Y+1873250D02*
X-1084580Y+1793875D01*
X-1054100Y+1793875D01*
X-1054100Y+1857375D01*
X-1038860Y+1873250D01*
X-1008380Y+1873250D01*
X-993140Y+1857375D01*
X-993140Y+1809750D01*
X-1008380Y+1793875D01*
X-850900Y+406400D02*
X-853090Y+464126D01*
X-870840Y+579580D01*
X-907681Y+695034D01*
X-966868Y+810488D01*
X-1055477Y+925942D01*
X-1170265Y+1026657D01*
X-1285719Y+1094584D01*
X-1401173Y+1138394D01*
X-1516627Y+1162294D01*
X-1612900Y+1168400D01*
X-2374900Y+406400D02*
X-2372710Y+464126D01*
X-2354960Y+579580D01*
X-2318119Y+695034D01*
X-2258932Y+810488D01*
X-2170323Y+925942D01*
X-2055535Y+1026657D01*
X-1940081Y+1094584D01*
X-1824627Y+1138394D01*
X-1709173Y+1162294D01*
X-1612900Y+1168400D01*
X-2374900Y+406400D02*
X-2372710Y+348674D01*
X-2354960Y+233220D01*
X-2318119Y+117766D01*
X-2258932Y+2312D01*
X-2170323Y-113142D01*
X-2055535Y-213857D01*
X-1940081Y-281784D01*
X-1824627Y-325594D01*
X-1709173Y-349494D01*
X-1612900Y-355600D01*
X-850900Y+406400D02*
X-853090Y+348674D01*
X-870840Y+233220D01*
X-907681Y+117766D01*
X-966868Y+2312D01*
X-1055477Y-113142D01*
X-1170265Y-213857D01*
X-1285719Y-281784D01*
X-1401173Y-325594D01*
X-1516627Y-349494D01*
X-1612900Y-355600D01*
X-1231900Y+914400D02*
X-1231900Y+787400D01*
X-1168400Y+850900D02*
X-1295400Y+850900D01*
X-1038860Y+374650D02*
X-1023620Y+358775D01*
X-1023620Y+311150D01*
X-1054100Y+279400D01*
X-1084580Y+279400D01*
X-1115060Y+311150D01*
X-1115060Y+358775D01*
X-1099820Y+374650D01*
X-1115060Y+422275D02*
X-1115060Y+501650D01*
X-1099820Y+501650D01*
X-1023620Y+422275D01*
X-825500Y-1181100D02*
X-825500Y-2451100D01*
X-4635500Y-2451100D02*
X-4635500Y-1181100D01*
X-825500Y-2451100D02*
X-4635500Y-2451100D01*
X-825500Y-1181100D02*
X-4635500Y-1181100D01*
X-4635500Y-2032000D02*
X-4457700Y-2032000D01*
X-4457700Y-1625600D01*
X-4635500Y-1625600D01*
X-4635500Y-2032000D01*
X-3738880Y-2120900D02*
X-3662680Y-2120900D01*
X-3647440Y-2105025D01*
X-3647440Y-2041525D01*
X-3662680Y-2025650D01*
X-3738880Y-2025650D01*
X-3738880Y-1898650D02*
X-3738880Y-1978025D01*
X-3708400Y-1978025D01*
X-3708400Y-1914525D01*
X-3693160Y-1898650D01*
X-3662680Y-1898650D01*
X-3647440Y-1914525D01*
X-3647440Y-1962150D01*
X-3662680Y-1978025D01*
X-825500Y-3225800D02*
X-825500Y-3048000D01*
X-901700Y-3225800D02*
X-749300Y-3225800D01*
X-1257300Y-3479800D02*
X-393700Y-3479800D01*
X-393700Y-3175000D02*
X-393700Y-3479800D01*
X-1257300Y-3175000D02*
X-1257300Y-3479800D01*
X-952500Y-2870200D02*
X-698500Y-2870200D01*
X-393700Y-3175000D01*
X-1257300Y-3175000D02*
X-952500Y-2870200D01*
X-1257300Y-3718561D02*
X-1257300Y-3627121D01*
X-1177925Y-3627121D01*
X-1162050Y-3642361D01*
X-1162050Y-3657601D01*
X-1177925Y-3672841D01*
X-1257300Y-3672841D01*
X-1130300Y-3627121D02*
X-1130300Y-3672841D01*
X-1082675Y-3718561D01*
X-1035050Y-3672841D01*
X-1035050Y-3627121D01*
X+4025900Y-3486500D02*
X+4025900Y-3409500D01*
X+3942400Y-3409500D02*
X+4099400Y-3409500D01*
X+4099400Y-3061500D01*
X+3942400Y-3061500D01*
X+3942400Y-3409500D01*
X+4025900Y-3061500D02*
X+4025900Y-2984500D01*
X+4074160Y-3359500D02*
X+3982720Y-3359500D01*
X+3982720Y-3280125D01*
X+3997960Y-3264250D01*
X+4013200Y-3264250D01*
X+4028440Y-3280125D01*
X+4028440Y-3359500D01*
X+4028440Y-3280125D02*
X+4043680Y-3264250D01*
X+4074160Y-3264250D01*
X+4013200Y-3200750D02*
X+3982720Y-3169000D01*
X+4074160Y-3169000D01*
X-68580Y-2628900D02*
X-68580Y-2705900D01*
X-142080Y-3053900D02*
X+14920Y-3053900D01*
X+14920Y-2705900D01*
X-142080Y-2705900D01*
X-142080Y-3053900D01*
X-68580Y-3053900D02*
X-68580Y-3130900D01*
X-25400Y-2997200D02*
X-116840Y-2997200D01*
X-116840Y-2917825D01*
X-101600Y-2901950D01*
X-86360Y-2901950D01*
X-71120Y-2917825D01*
X-71120Y-2997200D01*
X-71120Y-2917825D02*
X-55880Y-2901950D01*
X-25400Y-2901950D01*
X-101600Y-2854325D02*
X-116840Y-2838450D01*
X-116840Y-2790825D01*
X-101600Y-2774950D01*
X-86360Y-2774950D01*
X-71120Y-2790825D01*
X-71120Y-2838450D01*
X-55880Y-2854325D01*
X-25400Y-2854325D01*
X-25400Y-2774950D01*
X+4508500Y+3759200D02*
X+4508500Y+3632200D01*
X+4445000Y+3124200D02*
X+4572000Y+3124200D01*
X+4572000Y+3632200D01*
X+4445000Y+3632200D01*
X+4445000Y+3124200D01*
X+4508500Y+3124200D02*
X+4508500Y+2997200D01*
X+4554220Y+3251200D02*
X+4462780Y+3251200D01*
X+4462780Y+3330575D01*
X+4478020Y+3346450D01*
X+4493260Y+3346450D01*
X+4508500Y+3330575D01*
X+4508500Y+3251200D01*
X+4508500Y+3330575D02*
X+4523740Y+3346450D01*
X+4554220Y+3346450D01*
X+4478020Y+3473450D02*
X+4462780Y+3457575D01*
X+4462780Y+3409950D01*
X+4478020Y+3394075D01*
X+4538980Y+3394075D01*
X+4554220Y+3409950D01*
X+4554220Y+3457575D01*
X+4538980Y+3473450D01*
X+4523740Y+3473450D01*
X+4508500Y+3457575D01*
X+4508500Y+3394075D01*
X+3009900Y-4648200D02*
X+3136900Y-4648200D01*
X+3136900Y-4711700D02*
X+3644900Y-4711700D01*
X+3644900Y-4584700D01*
X+3136900Y-4584700D01*
X+3136900Y-4711700D01*
X+3644900Y-4648200D02*
X+3771900Y-4648200D01*
X+3263900Y-4544060D02*
X+3263900Y-4452620D01*
X+3343275Y-4452620D01*
X+3359150Y-4467860D01*
X+3359150Y-4483100D01*
X+3343275Y-4498340D01*
X+3263900Y-4498340D01*
X+3343275Y-4498340D02*
X+3359150Y-4513580D01*
X+3359150Y-4544060D01*
X+3406775Y-4452620D02*
X+3486150Y-4452620D01*
X+3486150Y-4467860D01*
X+3406775Y-4544060D01*
X+1851660Y-2275840D02*
X+1774660Y-2275840D01*
X+1426660Y-2359340D02*
X+1774660Y-2359340D01*
X+1774660Y-2202340D01*
X+1426660Y-2202340D01*
X+1426660Y-2359340D01*
X+1426660Y-2275840D02*
X+1349660Y-2275840D01*
X+1470660Y-2331720D02*
X+1470660Y-2240280D01*
X+1550035Y-2240280D01*
X+1565910Y-2255520D01*
X+1565910Y-2270760D01*
X+1550035Y-2286000D01*
X+1470660Y-2286000D01*
X+1550035Y-2286000D02*
X+1565910Y-2301240D01*
X+1565910Y-2331720D01*
X+1692910Y-2270760D02*
X+1677035Y-2286000D01*
X+1629410Y-2286000D01*
X+1613535Y-2270760D01*
X+1613535Y-2255520D01*
X+1629410Y-2240280D01*
X+1677035Y-2240280D01*
X+1692910Y-2255520D01*
X+1692910Y-2316480D01*
X+1677035Y-2331720D01*
X+1629410Y-2331720D01*
X+160020Y-2647600D02*
X+160020Y-2724600D01*
X+86520Y-3072600D02*
X+243520Y-3072600D01*
X+243520Y-2724600D01*
X+86520Y-2724600D01*
X+86520Y-3072600D01*
X+160020Y-3072600D02*
X+160020Y-3149600D01*
X+215900Y-3041300D02*
X+124460Y-3041300D01*
X+124460Y-2977800D01*
X+139700Y-2965100D01*
X+154940Y-2965100D01*
X+170180Y-2977800D01*
X+170180Y-3041300D01*
X+170180Y-2977800D02*
X+185420Y-2965100D01*
X+215900Y-2965100D01*
X+154940Y-2914300D02*
X+124460Y-2888900D01*
X+215900Y-2888900D01*
X+139700Y-2825400D02*
X+124460Y-2812700D01*
X+124460Y-2774600D01*
X+139700Y-2761900D01*
X+154940Y-2761900D01*
X+170180Y-2774600D01*
X+185420Y-2761900D01*
X+200660Y-2761900D01*
X+215900Y-2774600D01*
X+215900Y-2812700D01*
X+200660Y-2825400D01*
X+170180Y-2800000D02*
X+170180Y-2774600D01*
X+4236914Y-2984501D02*
X+4236914Y-2857501D01*
X+4744914Y-2857501D01*
X+4744914Y-3365501D01*
X+4236914Y-3365501D01*
X+4236914Y-3238501D01*
X+4363914Y-3111501D02*
X+4361478Y-3085625D01*
X+4354429Y-3061654D01*
X+4343152Y-3040064D01*
X+4328036Y-3021331D01*
X+4309468Y-3005932D01*
X+4287833Y-2994344D01*
X+4263520Y-2987041D01*
X+4236914Y-2984501D01*
X+4363914Y-3111501D02*
X+4361478Y-3138107D01*
X+4354429Y-3162420D01*
X+4343152Y-3184055D01*
X+4328036Y-3202624D01*
X+4309468Y-3217739D01*
X+4287833Y-3229016D01*
X+4263520Y-3236065D01*
X+4236914Y-3238501D01*
X+4384234Y-3314701D02*
X+4460434Y-3314701D01*
X+4475674Y-3298826D01*
X+4475674Y-3235326D01*
X+4460434Y-3219451D01*
X+4384234Y-3219451D01*
X+4414714Y-3155951D02*
X+4384234Y-3124201D01*
X+4475674Y-3124201D01*
X+2260600Y-1600200D02*
X+2259047Y-1560513D01*
X+2246450Y-1481138D01*
X+2220240Y-1401763D01*
X+2177905Y-1322388D01*
X+2113822Y-1243013D01*
X+2034458Y-1177565D01*
X+1955083Y-1134298D01*
X+1875708Y-1107343D01*
X+1796333Y-1094086D01*
X+1752600Y-1092200D01*
X+1244600Y-1600200D02*
X+1246153Y-1560513D01*
X+1258750Y-1481138D01*
X+1284960Y-1401763D01*
X+1327295Y-1322388D01*
X+1391378Y-1243013D01*
X+1470742Y-1177565D01*
X+1550117Y-1134298D01*
X+1629492Y-1107343D01*
X+1708867Y-1094086D01*
X+1752600Y-1092200D01*
X+1244600Y-1600200D02*
X+1246153Y-1639887D01*
X+1258750Y-1719262D01*
X+1284960Y-1798637D01*
X+1327295Y-1878012D01*
X+1391378Y-1957387D01*
X+1470742Y-2022835D01*
X+1550117Y-2066102D01*
X+1629492Y-2093057D01*
X+1708867Y-2106314D01*
X+1752600Y-2108200D01*
X+2260600Y-1600200D02*
X+2259047Y-1639887D01*
X+2246450Y-1719262D01*
X+2220240Y-1798637D01*
X+2177905Y-1878012D01*
X+2113822Y-1957387D01*
X+2034458Y-2022835D01*
X+1955083Y-2066102D01*
X+1875708Y-2093057D01*
X+1796333Y-2106314D01*
X+1752600Y-2108200D01*
X+1498600Y-1917700D02*
X+1498600Y-1790700D01*
X+1435100Y-1854200D02*
X+1562100Y-1854200D01*
X+1531620Y-1606550D02*
X+1546860Y-1622425D01*
X+1546860Y-1670050D01*
X+1516380Y-1701800D01*
X+1485900Y-1701800D01*
X+1455420Y-1670050D01*
X+1455420Y-1622425D01*
X+1470660Y-1606550D01*
X+1470660Y-1558925D02*
X+1455420Y-1543050D01*
X+1455420Y-1495425D01*
X+1470660Y-1479550D01*
X+1485900Y-1479550D01*
X+1501140Y-1495425D01*
X+1501140Y-1543050D01*
X+1516380Y-1558925D01*
X+1546860Y-1558925D01*
X+1546860Y-1479550D01*
X-4495800Y-3733800D02*
X-3733800Y-3733800D01*
X-3733800Y-3175000D01*
X-4495800Y-3175000D01*
X-4495800Y-3733800D01*
X-3954762Y-3441700D02*
X-3955336Y-3427625D01*
X-3960003Y-3399474D01*
X-3969749Y-3371323D01*
X-3985617Y-3343172D01*
X-4009891Y-3315183D01*
X-4038042Y-3293931D01*
X-4066193Y-3280207D01*
X-4094344Y-3272174D01*
X-4122495Y-3269035D01*
X-4127500Y-3268962D01*
X-4300238Y-3441700D02*
X-4299664Y-3427625D01*
X-4294997Y-3399474D01*
X-4285251Y-3371323D01*
X-4269383Y-3343172D01*
X-4245109Y-3315183D01*
X-4216958Y-3293931D01*
X-4188807Y-3280207D01*
X-4160656Y-3272174D01*
X-4132505Y-3269035D01*
X-4127500Y-3268962D01*
X-4300238Y-3441700D02*
X-4299664Y-3455775D01*
X-4294997Y-3483926D01*
X-4285251Y-3512077D01*
X-4269383Y-3540228D01*
X-4245109Y-3568217D01*
X-4216958Y-3589469D01*
X-4188807Y-3603193D01*
X-4160656Y-3611226D01*
X-4132505Y-3614365D01*
X-4127500Y-3614438D01*
X-3954762Y-3441700D02*
X-3955336Y-3455775D01*
X-3960003Y-3483926D01*
X-3969749Y-3512077D01*
X-3985617Y-3540228D01*
X-4009891Y-3568217D01*
X-4038042Y-3589469D01*
X-4066193Y-3603193D01*
X-4094344Y-3611226D01*
X-4122495Y-3614365D01*
X-4127500Y-3614438D01*
X-4597400Y-3575050D02*
X-4627880Y-3543300D01*
X-4627880Y-3511550D01*
X-4597400Y-3479800D01*
X-4566920Y-3479800D01*
X-4536440Y-3511550D01*
X-4536440Y-3543300D01*
X-4566920Y-3575050D01*
X-4597400Y-3575050D01*
X-4627880Y-3448050D02*
X-4536440Y-3448050D01*
X-4627880Y-3352800D02*
X-4582160Y-3400425D01*
X-4536440Y-3352800D01*
X-4582160Y-3448050D02*
X-4582160Y-3400425D01*
X-3352800Y-3721100D02*
X-2590800Y-3721100D01*
X-2590800Y-3162300D01*
X-3352800Y-3162300D01*
X-3352800Y-3721100D01*
X-2811762Y-3429000D02*
X-2812336Y-3414925D01*
X-2817003Y-3386774D01*
X-2826749Y-3358623D01*
X-2842617Y-3330472D01*
X-2866891Y-3302483D01*
X-2895042Y-3281231D01*
X-2923193Y-3267507D01*
X-2951344Y-3259474D01*
X-2979495Y-3256335D01*
X-2984500Y-3256262D01*
X-3157238Y-3429000D02*
X-3156664Y-3414925D01*
X-3151997Y-3386774D01*
X-3142251Y-3358623D01*
X-3126383Y-3330472D01*
X-3102109Y-3302483D01*
X-3073958Y-3281231D01*
X-3045807Y-3267507D01*
X-3017656Y-3259474D01*
X-2989505Y-3256335D01*
X-2984500Y-3256262D01*
X-3157238Y-3429000D02*
X-3156664Y-3443075D01*
X-3151997Y-3471226D01*
X-3142251Y-3499377D01*
X-3126383Y-3527528D01*
X-3102109Y-3555517D01*
X-3073958Y-3576769D01*
X-3045807Y-3590493D01*
X-3017656Y-3598526D01*
X-2989505Y-3601665D01*
X-2984500Y-3601738D01*
X-2811762Y-3429000D02*
X-2812336Y-3443075D01*
X-2817003Y-3471226D01*
X-2826749Y-3499377D01*
X-2842617Y-3527528D01*
X-2866891Y-3555517D01*
X-2895042Y-3576769D01*
X-2923193Y-3590493D01*
X-2951344Y-3598526D01*
X-2979495Y-3601665D01*
X-2984500Y-3601738D01*
X-3393440Y-3689350D02*
X-3484880Y-3689350D01*
X-3484880Y-3625850D01*
X-3454400Y-3594100D01*
X-3423920Y-3594100D01*
X-3393440Y-3625850D01*
X-3393440Y-3689350D01*
X-3454400Y-3562350D02*
X-3484880Y-3530600D01*
X-3484880Y-3498850D01*
X-3454400Y-3467100D01*
X-3423920Y-3467100D01*
X-3393440Y-3498850D01*
X-3393440Y-3530600D01*
X-3423920Y-3562350D01*
X-3454400Y-3562350D01*
X-3484880Y-3435350D02*
X-3393440Y-3435350D01*
X-3439160Y-3387725D01*
X-3393440Y-3340100D01*
X-3484880Y-3340100D01*
X-3393440Y-3308350D02*
X-3484880Y-3308350D01*
X-3393440Y-3213100D01*
X-3484880Y-3213100D01*
X-2273300Y-3721100D02*
X-1511300Y-3721100D01*
X-1511300Y-3162300D01*
X-2273300Y-3162300D01*
X-2273300Y-3721100D01*
X-1732262Y-3429000D02*
X-1732836Y-3414925D01*
X-1737503Y-3386774D01*
X-1747249Y-3358623D01*
X-1763117Y-3330472D01*
X-1787391Y-3302483D01*
X-1815542Y-3281231D01*
X-1843693Y-3267507D01*
X-1871844Y-3259474D01*
X-1899995Y-3256335D01*
X-1905000Y-3256262D01*
X-2077738Y-3429000D02*
X-2077164Y-3414925D01*
X-2072497Y-3386774D01*
X-2062751Y-3358623D01*
X-2046883Y-3330472D01*
X-2022609Y-3302483D01*
X-1994458Y-3281231D01*
X-1966307Y-3267507D01*
X-1938156Y-3259474D01*
X-1910005Y-3256335D01*
X-1905000Y-3256262D01*
X-2077738Y-3429000D02*
X-2077164Y-3443075D01*
X-2072497Y-3471226D01*
X-2062751Y-3499377D01*
X-2046883Y-3527528D01*
X-2022609Y-3555517D01*
X-1994458Y-3576769D01*
X-1966307Y-3590493D01*
X-1938156Y-3598526D01*
X-1910005Y-3601665D01*
X-1905000Y-3601738D01*
X-1732262Y-3429000D02*
X-1732836Y-3443075D01*
X-1737503Y-3471226D01*
X-1747249Y-3499377D01*
X-1763117Y-3527528D01*
X-1787391Y-3555517D01*
X-1815542Y-3576769D01*
X-1843693Y-3590493D01*
X-1871844Y-3598526D01*
X-1899995Y-3601665D01*
X-1905000Y-3601738D01*
X-2405380Y-3562350D02*
X-2329180Y-3562350D01*
X-2313940Y-3546475D01*
X-2313940Y-3482975D01*
X-2329180Y-3467100D01*
X-2405380Y-3467100D01*
X-2313940Y-3435350D02*
X-2405380Y-3435350D01*
X-2405380Y-3355975D01*
X-2390140Y-3340100D01*
X-2374900Y-3340100D01*
X-2359660Y-3355975D01*
X-2359660Y-3435350D01*
X+2293620Y-2992120D02*
X+2292067Y-2952433D01*
X+2279470Y-2873058D01*
X+2253260Y-2793683D01*
X+2210925Y-2714308D01*
X+2146842Y-2634933D01*
X+2067478Y-2569485D01*
X+1988103Y-2526218D01*
X+1908728Y-2499263D01*
X+1829353Y-2486006D01*
X+1785620Y-2484120D01*
X+1277620Y-2992120D02*
X+1279173Y-2952433D01*
X+1291770Y-2873058D01*
X+1317980Y-2793683D01*
X+1360315Y-2714308D01*
X+1424398Y-2634933D01*
X+1503762Y-2569485D01*
X+1583137Y-2526218D01*
X+1662512Y-2499263D01*
X+1741887Y-2486006D01*
X+1785620Y-2484120D01*
X+1277620Y-2992120D02*
X+1279173Y-3031807D01*
X+1291770Y-3111182D01*
X+1317980Y-3190557D01*
X+1360315Y-3269932D01*
X+1424398Y-3349307D01*
X+1503762Y-3414755D01*
X+1583137Y-3458022D01*
X+1662512Y-3484977D01*
X+1741887Y-3498234D01*
X+1785620Y-3500120D01*
X+2293620Y-2992120D02*
X+2292067Y-3031807D01*
X+2279470Y-3111182D01*
X+2253260Y-3190557D01*
X+2210925Y-3269932D01*
X+2146842Y-3349307D01*
X+2067478Y-3414755D01*
X+1988103Y-3458022D01*
X+1908728Y-3484977D01*
X+1829353Y-3498234D01*
X+1785620Y-3500120D01*
X+2039620Y-2674620D02*
X+2039620Y-2801620D01*
X+2103120Y-2738120D02*
X+1976120Y-2738120D01*
X+1551540Y-3021330D02*
X+1566780Y-3037205D01*
X+1566780Y-3084830D01*
X+1536300Y-3116580D01*
X+1505820Y-3116580D01*
X+1475340Y-3084830D01*
X+1475340Y-3037205D01*
X+1490580Y-3021330D01*
X+1490580Y-2894330D02*
X+1475340Y-2910205D01*
X+1475340Y-2957830D01*
X+1490580Y-2973705D01*
X+1551540Y-2973705D01*
X+1566780Y-2957830D01*
X+1566780Y-2910205D01*
X+1551540Y-2894330D01*
X+1536300Y-2894330D01*
X+1521060Y-2910205D01*
X+1521060Y-2973705D01*
X+1173480Y-3992880D02*
X+1691640Y-3992880D01*
X+1691640Y-3726180D01*
X+1173480Y-3726180D01*
X+1173480Y-3992880D01*
X+1254760Y-3728720D02*
X+1254760Y-3990340D01*
X+1102360Y-3860800D02*
X+1173480Y-3860800D01*
X+1691640Y-3860800D02*
X+1762760Y-3860800D01*
X+1358900Y-3896360D02*
X+1358900Y-3804920D01*
X+1422400Y-3804920D01*
X+1454150Y-3835400D01*
X+1454150Y-3865880D01*
X+1422400Y-3896360D01*
X+1358900Y-3896360D01*
X+1581150Y-3865880D02*
X+1485900Y-3865880D01*
X+1549400Y-3804920D01*
X+1549400Y-3896360D01*
X-1397000Y-4366260D02*
X-878840Y-4366260D01*
X-878840Y-4099560D01*
X-1397000Y-4099560D01*
X-1397000Y-4366260D01*
X-960120Y-4363720D02*
X-960120Y-4102100D01*
X-807720Y-4231640D02*
X-878840Y-4231640D01*
X-1397000Y-4231640D02*
X-1468120Y-4231640D01*
X-1292860Y-4277360D02*
X-1292860Y-4185920D01*
X-1229360Y-4185920D01*
X-1197610Y-4216400D01*
X-1197610Y-4246880D01*
X-1229360Y-4277360D01*
X-1292860Y-4277360D01*
X-1070610Y-4185920D02*
X-1149985Y-4185920D01*
X-1149985Y-4216400D01*
X-1086485Y-4216400D01*
X-1070610Y-4231640D01*
X-1070610Y-4262120D01*
X-1086485Y-4277360D01*
X-1134110Y-4277360D01*
X-1149985Y-4262120D01*
X-2611120Y-764540D02*
X-1595120Y-764540D01*
X-1595120Y-510540D01*
X-2611120Y-510540D01*
X-2611120Y-764540D01*
X-2230120Y-866140D02*
X-2230120Y-881380D01*
X-2214245Y-896620D01*
X-2150745Y-896620D01*
X-2134870Y-881380D01*
X-2134870Y-805180D01*
X-2071370Y-835660D02*
X-2039620Y-805180D01*
X-2039620Y-896620D01*
X+388620Y-2647600D02*
X+388620Y-2724600D01*
X+315120Y-3072600D02*
X+472120Y-3072600D01*
X+472120Y-2724600D01*
X+315120Y-2724600D01*
X+315120Y-3072600D01*
X+388620Y-3072600D02*
X+388620Y-3149600D01*
X+436880Y-3079400D02*
X+345440Y-3079400D01*
X+345440Y-3000025D01*
X+360680Y-2984150D01*
X+375920Y-2984150D01*
X+391160Y-3000025D01*
X+391160Y-3079400D01*
X+391160Y-3000025D02*
X+406400Y-2984150D01*
X+436880Y-2984150D01*
X+375920Y-2920650D02*
X+345440Y-2888900D01*
X+436880Y-2888900D01*
X+375920Y-2793650D02*
X+345440Y-2761900D01*
X+436880Y-2761900D01*
X+607073Y-3130901D02*
X+607073Y-3053901D01*
X+523573Y-3053901D02*
X+680573Y-3053901D01*
X+680573Y-2705901D01*
X+523573Y-2705901D01*
X+523573Y-3053901D01*
X+607073Y-2705901D02*
X+607073Y-2628901D01*
X+645166Y-3059788D02*
X+553726Y-3059788D01*
X+553726Y-2980413D01*
X+568966Y-2964538D01*
X+584206Y-2964538D01*
X+599446Y-2980413D01*
X+599446Y-3059788D01*
X+599446Y-2980413D02*
X+614686Y-2964538D01*
X+645166Y-2964538D01*
X+584206Y-2901038D02*
X+553726Y-2869288D01*
X+645166Y-2869288D01*
X+568966Y-2789913D02*
X+553726Y-2774038D01*
X+553726Y-2726413D01*
X+568966Y-2710538D01*
X+584206Y-2710538D01*
X+599446Y-2726413D01*
X+599446Y-2774038D01*
X+614686Y-2789913D01*
X+645166Y-2789913D01*
X+645166Y-2710538D01*
X-287020Y-3987800D02*
X-287020Y-3860800D01*
X+728980Y-3860800D01*
X+728980Y-4368800D01*
X-287020Y-4368800D01*
X-287020Y-4241800D01*
X-160020Y-4114800D02*
X-162456Y-4088924D01*
X-169505Y-4064952D01*
X-180782Y-4043362D01*
X-195898Y-4024630D01*
X-214466Y-4009231D01*
X-236101Y-3997642D01*
X-260414Y-3990340D01*
X-287020Y-3987800D01*
X-160020Y-4114800D02*
X-162456Y-4141406D01*
X-169505Y-4165719D01*
X-180782Y-4187354D01*
X-195898Y-4205922D01*
X-214466Y-4221038D01*
X-236101Y-4232315D01*
X-260414Y-4239364D01*
X-287020Y-4241800D01*
X-66040Y-4236720D02*
X+10160Y-4236720D01*
X+25400Y-4220845D01*
X+25400Y-4157345D01*
X+10160Y-4141470D01*
X-66040Y-4141470D01*
X-50800Y-4014470D02*
X-66040Y-4030345D01*
X-66040Y-4077970D01*
X-50800Y-4093845D01*
X+10160Y-4093845D01*
X+25400Y-4077970D01*
X+25400Y-4030345D01*
X+10160Y-4014470D01*
X-5080Y-4014470D01*
X-20320Y-4030345D01*
X-20320Y-4093845D01*
X+899160Y-4655820D02*
X+1407160Y-4655820D01*
X+822960Y-4490720D02*
X+827722Y-4529018D01*
X+842010Y-4568508D01*
X+865822Y-4610378D01*
X+899160Y-4655820D01*
X+822960Y-4490720D02*
X+825591Y-4425802D01*
X+842072Y-4365767D01*
X+870999Y-4311778D01*
X+910967Y-4264998D01*
X+960572Y-4226589D01*
X+1018409Y-4197715D01*
X+1083073Y-4179537D01*
X+1153160Y-4173220D01*
X+1483360Y-4490720D02*
X+1478598Y-4529018D01*
X+1464310Y-4568508D01*
X+1440498Y-4610378D01*
X+1407160Y-4655820D01*
X+1483360Y-4490720D02*
X+1480729Y-4425802D01*
X+1464248Y-4365767D01*
X+1435321Y-4311778D01*
X+1395353Y-4264998D01*
X+1345748Y-4226589D01*
X+1287911Y-4197715D01*
X+1223247Y-4179537D01*
X+1153160Y-4173220D01*
X+1026160Y-4274820D02*
X+1057910Y-4244340D01*
X+1089660Y-4244340D01*
X+1121410Y-4274820D01*
X+1121410Y-4305300D01*
X+1089660Y-4335780D01*
X+1057910Y-4335780D01*
X+1026160Y-4305300D01*
X+1026160Y-4274820D01*
X+1089660Y-4305300D02*
X+1121410Y-4335780D01*
X+1248410Y-4244340D02*
X+1169035Y-4244340D01*
X+1169035Y-4274820D01*
X+1232535Y-4274820D01*
X+1248410Y-4290060D01*
X+1248410Y-4320540D01*
X+1232535Y-4335780D01*
X+1184910Y-4335780D01*
X+1169035Y-4320540D01*
X+1539240Y-4366260D02*
X+2301240Y-4366260D01*
X+2301240Y-4112260D01*
X+1539240Y-4112260D01*
X+1539240Y-4366260D01*
X+2301240Y-4366260D02*
X+2301240Y-4493260D01*
X+1539240Y-4493260D01*
X+1539240Y-4366260D01*
X+2301240Y-4366260D02*
X+2174240Y-4493260D01*
X+2174240Y-4366260D02*
X+2047240Y-4493260D01*
X+2047240Y-4366260D02*
X+1920240Y-4493260D01*
X+1920240Y-4366260D02*
X+1793240Y-4493260D01*
X+1793240Y-4366260D02*
X+1666240Y-4493260D01*
X+1666240Y-4366260D02*
X+1539240Y-4493260D01*
X+1793240Y-4564380D02*
X+1824990Y-4533900D01*
X+1856740Y-4533900D01*
X+1888490Y-4564380D01*
X+1888490Y-4594860D01*
X+1856740Y-4625340D01*
X+1824990Y-4625340D01*
X+1793240Y-4594860D01*
X+1793240Y-4564380D01*
X+1856740Y-4594860D02*
X+1888490Y-4625340D01*
X+2015490Y-4549140D02*
X+1999615Y-4533900D01*
X+1951990Y-4533900D01*
X+1936115Y-4549140D01*
X+1936115Y-4610100D01*
X+1951990Y-4625340D01*
X+1999615Y-4625340D01*
X+2015490Y-4610100D01*
X+2015490Y-4594860D01*
X+1999615Y-4579620D01*
X+1936115Y-4579620D01*
X+899160Y-2159000D02*
X+899160Y-2286000D01*
X+772160Y-3302000D02*
X+1026160Y-3302000D01*
X+1026160Y-2286000D01*
X+772160Y-2286000D01*
X+772160Y-3302000D01*
X+899160Y-3302000D02*
X+899160Y-3429000D01*
X+947420Y-2842260D02*
X+855980Y-2842260D01*
X+855980Y-2762885D01*
X+871220Y-2747010D01*
X+886460Y-2747010D01*
X+901700Y-2762885D01*
X+901700Y-2842260D01*
X+901700Y-2762885D02*
X+916940Y-2747010D01*
X+947420Y-2747010D01*
X+886460Y-2683510D02*
X+855980Y-2651760D01*
X+947420Y-2651760D01*
X+932180Y-2588260D02*
X+871220Y-2588260D01*
X+855980Y-2572385D01*
X+855980Y-2508885D01*
X+871220Y-2493010D01*
X+932180Y-2493010D01*
X+947420Y-2508885D01*
X+947420Y-2572385D01*
X+932180Y-2588260D01*
X+947420Y-2588260D02*
X+855980Y-2493010D01*
M02*
