G04 PROTEUS GERBER X2 FILE*
%TF.GenerationSoftware,Labcenter,Proteus,8.13-SP0-Build31525*%
%TF.CreationDate,2023-02-16T13:29:28+00:00*%
%TF.FileFunction,Copper,L2,Bot*%
%TF.FilePolarity,Positive*%
%TF.Part,Single*%
%TF.SameCoordinates,{1a083b5a-91e7-4c28-9893-6f2ba5a781e2}*%
%FSLAX45Y45*%
%MOMM*%
G01*
%TA.AperFunction,Conductor*%
%ADD12C,0.508000*%
%ADD10C,1.524000*%
%ADD13C,1.016000*%
%ADD14C,1.270000*%
%ADD29C,2.540000*%
%ADD11C,2.032000*%
%TA.AperFunction,ViaPad*%
%ADD15C,0.762000*%
%TA.AperFunction,ComponentPad*%
%ADD16R,2.032000X2.032000*%
%TA.AperFunction,ComponentPad*%
%ADD17C,3.048000*%
%TA.AperFunction,ComponentPad*%
%ADD18R,1.905000X1.905000*%
%TA.AperFunction,ComponentPad*%
%ADD19C,2.540000*%
%ADD70C,6.350000*%
%TA.AperFunction,ComponentPad*%
%ADD71C,3.251200*%
%TA.AperFunction,ComponentPad*%
%ADD20C,2.286000*%
%ADD21C,1.778000*%
%TA.AperFunction,OtherPad,Unknown*%
%ADD22C,3.251200*%
%AMDIL015*
4,1,8,
-0.762000,0.965200,-0.457200,1.270000,0.457200,1.270000,0.762000,0.965200,0.762000,-0.965200,
0.457200,-1.270000,-0.457200,-1.270000,-0.762000,-0.965200,-0.762000,0.965200,
0*%
%TA.AperFunction,ComponentPad*%
%ADD23DIL015*%
%TA.AperFunction,ComponentPad*%
%ADD24R,1.270000X1.270000*%
%ADD25C,1.270000*%
%TA.AperFunction,ComponentPad*%
%ADD26C,1.524000*%
%TA.AperFunction,ComponentPad*%
%ADD27C,2.032000*%
%TA.AperFunction,Profile*%
%ADD28C,0.203200*%
%TD.AperFunction*%
G36*
X+4849618Y+3706724D02*
X+4686299Y+3870043D01*
X+4686299Y+3959847D01*
X+4582147Y+4063999D01*
X+4434853Y+4063999D01*
X+4330701Y+3959847D01*
X+4330701Y+3812553D01*
X+4434853Y+3708401D01*
X+4524657Y+3708401D01*
X+4648200Y+3584858D01*
X+4648200Y+2981946D01*
X+4582147Y+3047999D01*
X+4434853Y+3047999D01*
X+4377383Y+2990529D01*
X+4124459Y+2990529D01*
X+3111499Y+4003489D01*
X+3111499Y+4254501D01*
X+3128194Y+4254501D01*
X+3163196Y+4219499D01*
X+3210493Y+4254501D01*
X+3619499Y+4254501D01*
X+3619499Y+4635499D01*
X+3340099Y+4635499D01*
X+3340099Y+4678485D01*
X+3219095Y+4799489D01*
X+4849618Y+4801632D01*
X+4849618Y+3706724D01*
G37*
%LPC*%
G36*
X+4180841Y+4315442D02*
X+4180841Y+4523758D01*
X+4328142Y+4671059D01*
X+4536458Y+4671059D01*
X+4683759Y+4523758D01*
X+4683759Y+4315442D01*
X+4536458Y+4168141D01*
X+4328142Y+4168141D01*
X+4180841Y+4315442D01*
G37*
%LPD*%
G36*
X-3799742Y+4777642D02*
X-3848099Y+4729285D01*
X-3848099Y+4635499D01*
X-3873499Y+4635499D01*
X-3873499Y+4254501D01*
X-3619499Y+4254501D01*
X-3619499Y+4035893D01*
X-3603156Y+4019550D01*
X-4779902Y+2842804D01*
X-4779902Y+1568330D01*
X-4329173Y+1117601D01*
X-4189349Y+1117601D01*
X-4152899Y+1081151D01*
X-4152899Y+905157D01*
X-4102099Y+854357D01*
X-4102099Y+673628D01*
X-4203699Y+572028D01*
X-4203699Y+393172D01*
X-4077228Y+266701D01*
X-3898372Y+266701D01*
X-3771901Y+393172D01*
X-3771901Y+572028D01*
X-3873501Y+673628D01*
X-3873501Y+949043D01*
X-3924301Y+999843D01*
X-3924301Y+1081151D01*
X-3811651Y+1193801D01*
X-3381657Y+1193801D01*
X-3318157Y+1257301D01*
X-2769128Y+1257301D01*
X-2667527Y+1155701D01*
X-2083327Y+571501D01*
X-1524527Y+571501D01*
X-699028Y-253999D01*
X-520172Y-253999D01*
X+1351610Y-253554D01*
X+1432448Y-219229D01*
X+1462954Y-187639D01*
X+3446972Y+1866901D01*
X+3875151Y+1866901D01*
X+3900551Y+1841501D01*
X+4100449Y+1841501D01*
X+4241799Y+1982851D01*
X+4241799Y+2182749D01*
X+4100449Y+2324099D01*
X+3900551Y+2324099D01*
X+3875151Y+2298699D01*
X+3311407Y+2298699D01*
X+3244918Y+2270476D01*
X+3400143Y+2425701D01*
X+4207157Y+2425701D01*
X+4521201Y+2111657D01*
X+4521201Y+582547D01*
X+4508499Y+595249D01*
X+4508499Y+974443D01*
X+4241799Y+1241143D01*
X+4241799Y+1420749D01*
X+4100449Y+1562099D01*
X+3900551Y+1562099D01*
X+3759201Y+1420749D01*
X+3759201Y+1220851D01*
X+3900551Y+1079501D01*
X+4080157Y+1079501D01*
X+4279901Y+879757D01*
X+4279901Y+595249D01*
X+4152901Y+468249D01*
X+4152901Y+268351D01*
X+4279901Y+141351D01*
X+4279901Y-987336D01*
X+3349536Y-1917701D01*
X+2759124Y-1917701D01*
X+2792039Y-1895268D01*
X+2904803Y-1642324D01*
X+2959099Y-1588028D01*
X+2959099Y-1409172D01*
X+2832628Y-1282701D01*
X+2653772Y-1282701D01*
X+2527301Y-1409172D01*
X+2527301Y-1495947D01*
X+2499158Y-1580437D01*
X+1726569Y-1580437D01*
X+1696734Y-1600770D01*
X+1553086Y-1457122D01*
X-182182Y-1457122D01*
X-431799Y-1706739D01*
X-431799Y-1714501D01*
X-482599Y-1714501D01*
X-482599Y-2070101D01*
X-711201Y-2070101D01*
X-711201Y-800099D01*
X+1609664Y-800099D01*
X+1800164Y-990599D01*
X+2136836Y-990599D01*
X+2374899Y-752536D01*
X+2374899Y-698499D01*
X+2988663Y-698499D01*
X+3814163Y+127001D01*
X+3993769Y+127001D01*
X+4135119Y+268351D01*
X+4135119Y+468249D01*
X+3993769Y+609599D01*
X+3793871Y+609599D01*
X+3652521Y+468249D01*
X+3652521Y+288643D01*
X+2893977Y-469901D01*
X+2374899Y-469901D01*
X+2374899Y-415864D01*
X+2136836Y-177801D01*
X+1800164Y-177801D01*
X+1562101Y-415864D01*
X+1562101Y-419101D01*
X-605167Y-419101D01*
X-1240167Y+215899D01*
X-1498072Y+215899D01*
X-1523472Y+241299D01*
X-1702328Y+241299D01*
X-1760748Y+182879D01*
X-3830847Y+182879D01*
X-4203699Y-189972D01*
X-4203699Y-368828D01*
X-4077228Y-495299D01*
X-3898372Y-495299D01*
X-3651993Y-248919D01*
X-1847107Y-248919D01*
X-1803928Y-292098D01*
X-1625072Y-292098D01*
X-1498072Y-165099D01*
X-1397981Y-165099D01*
X-851879Y-711201D01*
X-1531621Y-711201D01*
X-1531621Y-447041D01*
X-2674619Y-447041D01*
X-2674619Y-523241D01*
X-2716883Y-523241D01*
X-2971799Y-778157D01*
X-2971799Y-838201D01*
X-4673599Y-838201D01*
X-4673599Y-1269999D01*
X-4622799Y-1269999D01*
X-4622799Y-1602846D01*
X-4492401Y-1733244D01*
X-4492401Y-1751206D01*
X-4434525Y-1809082D01*
X-4802152Y-2176709D01*
X-4802152Y-3992333D01*
X-4632201Y-4162284D01*
X-4747259Y-4277342D01*
X-4747259Y-4485658D01*
X-4599958Y-4632959D01*
X-4391642Y-4632959D01*
X-4244341Y-4485658D01*
X-4244341Y-4277342D01*
X-4326067Y-4195616D01*
X-4308276Y-4195616D01*
X-3703292Y-4800600D01*
X-4815082Y-4800600D01*
X-4815082Y+4788932D01*
X-3787101Y+4790283D01*
X-3799742Y+4777642D01*
G37*
%LPC*%
G36*
X-4772659Y+4404342D02*
X-4772659Y+4612658D01*
X-4625358Y+4759959D01*
X-4417042Y+4759959D01*
X-4269741Y+4612658D01*
X-4269741Y+4404342D01*
X-4417042Y+4257041D01*
X-4625358Y+4257041D01*
X-4772659Y+4404342D01*
G37*
G36*
X+1842028Y-1562099D02*
X+1663172Y-1562099D01*
X+1536701Y-1435628D01*
X+1536701Y-1256772D01*
X+1663172Y-1130301D01*
X+1842028Y-1130301D01*
X+1968499Y-1256772D01*
X+1968499Y-1435628D01*
X+1842028Y-1562099D01*
G37*
%LPD*%
G36*
X+4849618Y-4800600D02*
X+3997946Y-4800600D01*
X+4076699Y-4721847D01*
X+4076699Y-4632043D01*
X+4206241Y-4502501D01*
X+4206241Y-4574558D01*
X+4353542Y-4721859D01*
X+4561858Y-4721859D01*
X+4709159Y-4574558D01*
X+4709159Y-4366242D01*
X+4561858Y-4218941D01*
X+4353542Y-4218941D01*
X+4305299Y-4267184D01*
X+4305299Y-3712758D01*
X+4373157Y-3644900D01*
X+4516313Y-3644900D01*
X+4516313Y-3606425D01*
X+4554788Y-3644900D01*
X+4681040Y-3644900D01*
X+4770313Y-3555627D01*
X+4770313Y-3429375D01*
X+4681040Y-3340102D01*
X+4627157Y-3340102D01*
X+4605213Y-3318158D01*
X+4605213Y-2882900D01*
X+4681040Y-2882900D01*
X+4770313Y-2793627D01*
X+4770313Y-2704990D01*
X+4849618Y-2553343D01*
X+4849618Y-4800600D01*
G37*
G36*
X+4076701Y-4308757D02*
X+3915057Y-4470401D01*
X+3825253Y-4470401D01*
X+3721101Y-4574553D01*
X+3721101Y-4721847D01*
X+3799854Y-4800600D01*
X+2981946Y-4800600D01*
X+3060699Y-4721847D01*
X+3060699Y-4574553D01*
X+2956547Y-4470401D01*
X+2809253Y-4470401D01*
X+2705101Y-4574553D01*
X+2705101Y-4610101D01*
X+1726281Y-4610101D01*
X+1764383Y-4571999D01*
X+1830605Y-4571999D01*
X+1843305Y-4559299D01*
X+2221583Y-4559299D01*
X+2288539Y-4492343D01*
X+2288539Y-4429759D01*
X+2364739Y-4429759D01*
X+2364739Y-4129663D01*
X+2591175Y-4356099D01*
X+2659032Y-4356099D01*
X+2709832Y-4406899D01*
X+2878168Y-4406899D01*
X+2997199Y-4287868D01*
X+2997199Y-4119532D01*
X+2965450Y-4087783D01*
X+2965450Y-3971641D01*
X+3007008Y-4013199D01*
X+3444253Y-4013199D01*
X+3507753Y-4076699D01*
X+3649634Y-4076699D01*
X+3606801Y-4119532D01*
X+3606801Y-4287868D01*
X+3725832Y-4406899D01*
X+3894168Y-4406899D01*
X+4013199Y-4287868D01*
X+4013199Y-4119532D01*
X+3949699Y-4056032D01*
X+3949699Y-4036047D01*
X+4013199Y-3972547D01*
X+4013199Y-3890976D01*
X+4021025Y-3872083D01*
X+4013199Y-3864257D01*
X+4013199Y-3825253D01*
X+3979245Y-3791299D01*
X+4076701Y-3791299D01*
X+4076701Y-4308757D01*
G37*
D12*
X+4363914Y-3492501D02*
X+4191000Y-3665415D01*
X+4191000Y-4356100D01*
X+3898900Y-4648200D01*
D10*
X-632136Y+4601517D02*
X-631072Y+4600453D01*
X-631072Y+4546600D01*
X-632136Y+4519091D01*
X-632136Y+4601517D02*
X-716919Y+4686300D01*
X-1912064Y+4686300D01*
X-1930400Y+4667964D01*
X-1930400Y+4648200D01*
X-632136Y+4601517D02*
X-632136Y+4663763D01*
X-611750Y+4684149D01*
X+555120Y+4684149D01*
X-632136Y+4601517D02*
X-632136Y+4519091D01*
X+555120Y+4684149D02*
X+1820144Y+4684149D01*
D12*
X+555120Y+4684149D02*
X+547388Y+4691881D01*
D10*
X+635000Y+4445000D02*
X+635000Y+4604269D01*
X+555120Y+4684149D01*
X+3175000Y+4445000D02*
X+3179341Y+4436838D01*
X+3175000Y+4441179D01*
X+3175000Y+4610100D01*
X+3100951Y+4684149D01*
X+1820144Y+4684149D01*
X+1905000Y+4445000D02*
X+1905000Y+4599293D01*
X+1820144Y+4684149D01*
X-635000Y+4445000D02*
X-632136Y+4519091D01*
D12*
X-635000Y+4445000D02*
X-635000Y+4516227D01*
X-632136Y+4519091D01*
D10*
X-1930400Y+4648200D02*
X-1968500Y+4686300D01*
X-2428063Y+4686300D01*
X-2437190Y+4677173D01*
X-1930400Y+4457700D02*
X-1930400Y+4648200D01*
X-2437190Y+4677173D02*
X-2446317Y+4686300D01*
X-3158635Y+4686300D01*
X-2438400Y+4457700D02*
X-2437190Y+4458910D01*
X-2437190Y+4677173D01*
X-3175000Y+4445000D02*
X-3175000Y+4669935D01*
X-3158635Y+4686300D01*
X-3683000Y+4445000D02*
X-3683000Y+4660900D01*
X-3657600Y+4686300D01*
X-3158635Y+4686300D01*
D12*
X+1955800Y+1981200D02*
X+2794000Y+1981200D01*
X+3352800Y+2540000D01*
X+4254500Y+2540000D01*
X+4635500Y+2159000D01*
X+4635500Y-2222500D01*
X+4490914Y-2367086D01*
X+4490914Y-3365501D01*
X+4617914Y-3492501D01*
X+4508500Y+3886200D02*
X+4762499Y+3632201D01*
X+4762499Y-2471616D01*
X+4617914Y-2730501D01*
X+2800351Y-2863849D02*
X+2800351Y-2863848D01*
X+2546351Y-2863848D01*
X+2546351Y-2863849D01*
X+2800351Y-2863849D02*
X+2800352Y-2863849D01*
X+2800352Y-2692400D01*
X+2711452Y-2603500D01*
X+2667000Y-2603500D01*
X+2546351Y-3048000D02*
X+2546351Y-3625849D01*
X+2546351Y-2863849D02*
X+2546351Y-3048000D01*
X+1666240Y-4239260D02*
X+1666240Y-4508500D01*
X+1539240Y-4635500D01*
X-226060Y-4635500D01*
X-629920Y-4231640D01*
D13*
X+3054351Y-2863849D02*
X+3054351Y-2717800D01*
X+3423000Y-2603500D02*
X+3168651Y-2603500D01*
X+3054351Y-2717800D01*
D12*
X+3423000Y-2603500D02*
X+3511900Y-2603500D01*
X+3771900Y-2603500D01*
X+4025900Y-2857500D01*
D14*
X+2794000Y-4203700D02*
X+2654300Y-4203700D01*
X+2247900Y-3797300D01*
X+2247900Y-2598777D01*
X+2586077Y-2260600D01*
X+2743200Y-2260600D01*
D10*
X+2794000Y-4203700D02*
X+2800351Y-4197349D01*
X+2800351Y-3625849D01*
D12*
X+3581400Y-3898900D02*
X+3054351Y-3898900D01*
X+3054351Y-3625849D01*
X+1968500Y-584200D02*
X+2941320Y-584200D01*
X+3893820Y+368300D01*
D29*
X-1714500Y-76200D02*
X-1757680Y-33020D01*
X-3741420Y-33020D01*
X-3987800Y-279400D01*
D12*
X-1612900Y+25400D02*
X-1625600Y+12700D01*
X-1714500Y-76200D01*
D11*
X+1968500Y-584200D02*
X+1943100Y-609600D01*
X-684074Y-609600D01*
X-1612900Y+25400D02*
X-1319074Y+25400D01*
X-684074Y-609600D01*
D12*
X-3746500Y-1054100D02*
X-3738050Y-1062550D01*
X-3738050Y-1270918D01*
X-3936034Y-1468902D01*
X-3936034Y-1472233D01*
X-4687853Y-2224052D01*
X-4687853Y-3944990D01*
X-4551526Y-4081317D01*
X-4260933Y-4081317D01*
X-3617850Y-4724400D01*
X+2806700Y-4724400D01*
X+2882900Y-4648200D01*
X-2578100Y+2133600D02*
X-1143000Y+2133600D01*
X-1130300Y+2120900D01*
X-584200Y+2120900D01*
D29*
X-2578100Y+2133600D02*
X-2730500Y+2286000D01*
X-3822700Y+2286000D01*
X-4038600Y+2070100D01*
D11*
X-584200Y+2120900D02*
X-203200Y+1739900D01*
X-203200Y+614680D01*
X-284480Y+533400D01*
D12*
X-571500Y-3302000D02*
X-317500Y-3302000D01*
X-273400Y-3257900D01*
X-68580Y-3257900D01*
X-1460500Y-1054100D02*
X-1333500Y-1181100D01*
X-1333500Y-2578100D01*
X-1460500Y-2578100D01*
X-4254500Y-2349500D02*
X-2476500Y-2349500D01*
X-2476500Y-2578100D01*
X-2857500Y-1397000D02*
X-2857500Y-825500D01*
X-2669540Y-637540D01*
X-2484120Y-637540D01*
X-2095500Y-1651000D02*
X-2095500Y-825500D01*
X-2230120Y-825500D01*
X-2230120Y-637540D01*
D14*
X+924560Y-3860800D02*
X+899160Y-3835400D01*
X+899160Y-3556000D01*
D12*
X+1778000Y-4445000D02*
X+2174240Y-4445000D01*
X+2174240Y-4239260D01*
X+607073Y-3257901D02*
X+601980Y-3262994D01*
X+601980Y-3733800D01*
X+160020Y-2520600D02*
X+762000Y-3122580D01*
X+762000Y-3365500D01*
X+731520Y-3395980D01*
X+731520Y-3873500D01*
X+604520Y-4000500D01*
X+347980Y-4000500D01*
X+347980Y-3733800D01*
X-1460500Y-1905000D02*
X-1460500Y-1651000D01*
X-1841500Y-1270000D01*
X-1841500Y-825500D01*
X-1976120Y-825500D01*
X-1976120Y-637540D01*
D11*
X+2743200Y-1498600D02*
X+2636212Y-1770936D01*
X+1785311Y-1770936D01*
X+1752600Y-1854200D01*
D13*
X-292100Y-1905000D02*
X-292100Y-1764604D01*
X-124317Y-1596821D01*
X+1495221Y-1596821D01*
X+1752600Y-1854200D01*
D12*
X+3886200Y-2070100D02*
X+3891968Y-2075868D01*
X+3891968Y-2255545D01*
X+4186596Y-2550173D01*
X+4186596Y-3080502D01*
X+4009820Y-3257278D01*
X+3752408Y-3257278D01*
X+3581400Y-3428286D01*
X+3581400Y-3613500D01*
X+93980Y-3492500D02*
X-127000Y-3492500D01*
X-190500Y-3556000D01*
X-1778000Y-3556000D01*
X-1905000Y-3429000D01*
X-1905000Y-2984500D01*
X-2032000Y-2857500D01*
X-3746500Y-2857500D01*
X-3746500Y-2578100D01*
X+93980Y-3492500D02*
X+170180Y-3492500D01*
X+170180Y-3365500D01*
X+160020Y-3355340D01*
X+160020Y-3276600D01*
X+93980Y-3492500D02*
X+93980Y-3733800D01*
X-4038600Y+1308100D02*
X-3429000Y+1308100D01*
X-3365500Y+1371600D01*
X-2578100Y+1371600D01*
X-4038600Y+1308100D02*
X-4038600Y+952500D01*
X-3987800Y+901700D01*
X-3987800Y+482600D01*
X-68580Y-2501900D02*
X-68580Y-2438400D01*
X+20320Y-2349500D01*
X+217520Y-2349500D01*
X+388620Y-2520600D01*
X-2578100Y+1371600D02*
X-2362200Y+1587500D01*
X-812800Y+1587500D01*
X-584200Y+1358900D01*
D29*
X-2578100Y+1371600D02*
X-1993900Y+787400D01*
X-1968500Y+787400D01*
X-609600Y-38100D02*
X+1307649Y-37665D01*
X+3355329Y+2082800D01*
X+4000500Y+2082800D01*
D12*
X-609600Y-38100D02*
X-584200Y+12700D01*
D29*
X-1612900Y+787400D02*
X-1435100Y+787400D01*
X-609600Y-38100D01*
D11*
X-3327400Y+4013200D02*
X-3429000Y+4114800D01*
X-3429000Y+4445000D01*
X-3327400Y+4013200D02*
X-3213100Y+3898900D01*
X-2374900Y+3898900D01*
X-2184400Y+4089400D01*
X-4038600Y+1308100D02*
X-4250266Y+1308100D01*
X-4589403Y+1647237D01*
X-4589403Y+2763897D01*
X-3340100Y+4013200D01*
X-3327400Y+4013200D01*
X-2184400Y+4089400D02*
X-2184400Y+4457700D01*
D29*
X-1612900Y+787400D02*
X-1968500Y+787400D01*
D12*
X+4394200Y+368300D02*
X+4394200Y-1034679D01*
X+3396879Y-2032000D01*
X+2222500Y-2032000D01*
X+1978660Y-2275840D01*
X+4394200Y+368300D02*
X+4394200Y+927100D01*
X+4000500Y+1320800D01*
X-2159000Y-3822700D02*
X-2159000Y-3048000D01*
X-1583494Y-2074881D02*
X-1902201Y-1756174D01*
X-3844842Y-1756174D01*
X-4381500Y-3060700D02*
X-4381500Y-3835400D01*
X-3238500Y-3048000D02*
X-3238500Y-3822700D01*
X-4365402Y-1698601D02*
X-4508500Y-1555503D01*
X-4508500Y-1054100D01*
X-4159250Y-1911350D02*
X-3808842Y-2261758D01*
X-1590828Y-2261758D01*
X-1714500Y-1054100D02*
X-1587500Y-927100D01*
X-1587500Y-825500D01*
X-825500Y-825500D01*
X-825500Y-2209800D01*
X+215900Y-1905000D02*
X+607073Y-2296173D01*
X+607073Y-2501901D01*
X-1397000Y-3302000D02*
X-1397000Y-3429000D01*
X+1785620Y-3246120D02*
X+1785620Y-3528060D01*
X+1940560Y-3683000D01*
X+1940560Y-3860800D01*
X-1645920Y-4231640D02*
X-1859108Y-4231640D01*
X-1968500Y-4122248D01*
X-3873500Y-3835400D02*
X-3708400Y-4000500D01*
X-2908300Y-4000500D01*
X-2730500Y-3822700D01*
X+3835400Y-3898900D02*
X+3835400Y-4178300D01*
X+3810000Y-4203700D01*
X-1714500Y-1054100D02*
X-1714500Y-645160D01*
X-1722120Y-637540D01*
X-1651000Y-3822700D02*
X-1460500Y-3822700D01*
X-1333500Y-3949700D01*
X-1333500Y-4231640D01*
X-1645920Y-4231640D01*
X-2730500Y-3822700D02*
X-2730500Y-3048000D01*
X-3873500Y-3835400D02*
X-3873500Y-3060700D01*
D13*
X-1206500Y-2445159D02*
X-971141Y-2209800D01*
X-825500Y-2209800D01*
D12*
X-1397000Y-3302000D02*
X-1079500Y-3302000D01*
X-2730500Y-3822700D02*
X-2430952Y-4122248D01*
X-1968500Y-4122248D01*
D11*
X+676838Y+3780452D02*
X+661583Y+3765197D01*
X-574093Y+3765197D01*
X-889000Y+4080104D01*
X-889000Y+4445000D01*
X+749300Y+3780452D02*
X+676838Y+3780452D01*
X+664889Y+3780452D01*
D12*
X-1206500Y-2578100D02*
X-1206500Y-2445159D01*
D13*
X+215900Y-1905000D02*
X+215900Y-2095500D01*
X+101600Y-2209800D01*
X-825500Y-2209800D01*
D12*
X-1968500Y-4122248D02*
X-1963248Y-4122248D01*
X-1651000Y-3810000D01*
X-1206500Y-2578100D02*
X-1206500Y-2755900D01*
X-1219200Y-2768600D01*
X-1498600Y-3048000D01*
X-1651000Y-3048000D01*
X-1397000Y-3302000D01*
X+3835400Y-3898900D02*
X+3886200Y-3898900D01*
X+3835400Y-3848100D01*
X+3835400Y-3638900D01*
X+3810000Y-3613500D01*
D11*
X+749300Y+3780452D02*
X+1986203Y+3780452D01*
X+215900Y+533400D02*
X+379770Y+697270D01*
X+379770Y+3410922D01*
X+749300Y+3780452D01*
X+2921000Y+4406900D02*
X+2921000Y+4445000D01*
D12*
X+2921000Y+4082387D02*
X+2921000Y+4032346D01*
X+4077116Y+2876230D01*
X+4502470Y+2876230D01*
X+4508500Y+2870200D01*
D11*
X+2921000Y+4406900D02*
X+2921000Y+4082387D01*
X+1986203Y+3780452D02*
X+2619065Y+3780452D01*
X+2858526Y+4019913D01*
X+2921000Y+4082387D01*
X+1986203Y+3780452D02*
X+1651000Y+4115655D01*
X+1651000Y+4445000D01*
X+664889Y+3780452D02*
X+381000Y+4064341D01*
X+381000Y+4445000D01*
D12*
X+1785620Y-3246120D02*
X+2013761Y-3017979D01*
X+2013761Y-2679241D01*
X+1823720Y-2489200D01*
X+1663700Y-2489200D01*
X+1524000Y-2349500D01*
D14*
X+1785620Y-2738120D02*
X+1681480Y-2738120D01*
X+1524000Y-2895600D01*
X+1524000Y-3997960D01*
X+1666240Y-4140200D01*
X+1666240Y-4239260D01*
X+949960Y-4490720D02*
X+949960Y-4241800D01*
X+1143000Y-4048760D01*
X+1143000Y-2921000D01*
X+899160Y-2677160D01*
X+899160Y-2032000D01*
D15*
X-4254500Y-2349500D03*
X-2857500Y-1397000D03*
X-2095500Y-1651000D03*
X+1778000Y-4445000D03*
X-1460500Y-1905000D03*
X-3844842Y-1756174D03*
X-1583494Y-2074881D03*
X-4365402Y-1698601D03*
X-1590828Y-2261758D03*
X-4159250Y-1911350D03*
X-1397000Y-3429000D03*
X+1524000Y-2349500D03*
D12*
X+4849618Y+3706724D02*
X+4686299Y+3870043D01*
X+4686299Y+3959847D01*
X+4582147Y+4063999D01*
X+4434853Y+4063999D01*
X+4330701Y+3959847D01*
X+4330701Y+3812553D01*
X+4434853Y+3708401D01*
X+4524657Y+3708401D01*
X+4648200Y+3584858D01*
X+4648200Y+2981946D01*
X+4582147Y+3047999D01*
X+4434853Y+3047999D01*
X+4377383Y+2990529D01*
X+4124459Y+2990529D01*
X+3111499Y+4003489D01*
X+3111499Y+4254501D01*
X+3128194Y+4254501D01*
X+3163196Y+4219499D01*
X+3210493Y+4254501D01*
X+3619499Y+4254501D01*
X+3619499Y+4635499D01*
X+3340099Y+4635499D01*
X+3340099Y+4678485D01*
X+3219095Y+4799489D01*
X+4849618Y+4801632D01*
X+4849618Y+3706724D01*
X+4180841Y+4315442D02*
X+4180841Y+4523758D01*
X+4328142Y+4671059D01*
X+4536458Y+4671059D01*
X+4683759Y+4523758D01*
X+4683759Y+4315442D01*
X+4536458Y+4168141D01*
X+4328142Y+4168141D01*
X+4180841Y+4315442D01*
X-3799742Y+4777642D02*
X-3848099Y+4729285D01*
X-3848099Y+4635499D01*
X-3873499Y+4635499D01*
X-3873499Y+4254501D01*
X-3619499Y+4254501D01*
X-3619499Y+4035893D01*
X-3603156Y+4019550D01*
X-4779902Y+2842804D01*
X-4779902Y+1568330D01*
X-4329173Y+1117601D01*
X-4189349Y+1117601D01*
X-4152899Y+1081151D01*
X-4152899Y+905157D01*
X-4102099Y+854357D01*
X-4102099Y+673628D01*
X-4203699Y+572028D01*
X-4203699Y+393172D01*
X-4077228Y+266701D01*
X-3898372Y+266701D01*
X-3771901Y+393172D01*
X-3771901Y+572028D01*
X-3873501Y+673628D01*
X-3873501Y+949043D01*
X-3924301Y+999843D01*
X-3924301Y+1081151D01*
X-3811651Y+1193801D01*
X-3381657Y+1193801D01*
X-3318157Y+1257301D01*
X-2769128Y+1257301D01*
X-2667527Y+1155701D01*
X-2083327Y+571501D01*
X-1524527Y+571501D01*
X-699028Y-253999D01*
X-520172Y-253999D01*
X+1351610Y-253554D01*
X+1432448Y-219229D01*
X+1462954Y-187639D01*
X+3446972Y+1866901D01*
X+3875151Y+1866901D01*
X+3900551Y+1841501D01*
X+4100449Y+1841501D01*
X+4241799Y+1982851D01*
X+4241799Y+2182749D01*
X+4100449Y+2324099D01*
X+3900551Y+2324099D01*
X+3875151Y+2298699D01*
X+3311407Y+2298699D01*
X+3244918Y+2270476D01*
X+3400143Y+2425701D01*
X+4207157Y+2425701D01*
X+4521201Y+2111657D01*
X+4521201Y+582547D01*
X+4508499Y+595249D01*
X+4508499Y+974443D01*
X+4241799Y+1241143D01*
X+4241799Y+1420749D01*
X+4100449Y+1562099D01*
X+3900551Y+1562099D01*
X+3759201Y+1420749D01*
X+3759201Y+1220851D01*
X+3900551Y+1079501D01*
X+4080157Y+1079501D01*
X+4279901Y+879757D01*
X+4279901Y+595249D01*
X+4152901Y+468249D01*
X+4152901Y+268351D01*
X+4279901Y+141351D01*
X+4279901Y-987336D01*
X+3349536Y-1917701D01*
X+2759124Y-1917701D01*
X+2792039Y-1895268D01*
X+2904803Y-1642324D01*
X+2959099Y-1588028D01*
X+2959099Y-1409172D01*
X+2832628Y-1282701D01*
X+2653772Y-1282701D01*
X+2527301Y-1409172D01*
X+2527301Y-1495947D01*
X+2499158Y-1580437D01*
X+1726569Y-1580437D01*
X+1696734Y-1600770D01*
X+1553086Y-1457122D01*
X-182182Y-1457122D01*
X-431799Y-1706739D01*
X-431799Y-1714501D01*
X-482599Y-1714501D01*
X-482599Y-2070101D01*
X-711201Y-2070101D01*
X-711201Y-800099D01*
X+1609664Y-800099D01*
X+1800164Y-990599D01*
X+2136836Y-990599D01*
X+2374899Y-752536D01*
X+2374899Y-698499D01*
X+2988663Y-698499D01*
X+3814163Y+127001D01*
X+3993769Y+127001D01*
X+4135119Y+268351D01*
X+4135119Y+468249D01*
X+3993769Y+609599D01*
X+3793871Y+609599D01*
X+3652521Y+468249D01*
X+3652521Y+288643D01*
X+2893977Y-469901D01*
X+2374899Y-469901D01*
X+2374899Y-415864D01*
X+2136836Y-177801D01*
X+1800164Y-177801D01*
X+1562101Y-415864D01*
X+1562101Y-419101D01*
X-605167Y-419101D01*
X-1240167Y+215899D01*
X-1498072Y+215899D01*
X-1523472Y+241299D01*
X-1702328Y+241299D01*
X-1760748Y+182879D01*
X-3830847Y+182879D01*
X-4203699Y-189972D01*
X-4203699Y-368828D01*
X-4077228Y-495299D01*
X-3898372Y-495299D01*
X-3651993Y-248919D01*
X-1847107Y-248919D01*
X-1803928Y-292098D01*
X-1625072Y-292098D01*
X-1498072Y-165099D01*
X-1397981Y-165099D01*
X-851879Y-711201D01*
X-1531621Y-711201D01*
X-1531621Y-447041D01*
X-2674619Y-447041D01*
X-2674619Y-523241D01*
X-2716883Y-523241D01*
X-2971799Y-778157D01*
X-2971799Y-838201D01*
X-4673599Y-838201D01*
X-4673599Y-1269999D01*
X-4622799Y-1269999D01*
X-4622799Y-1602846D01*
X-4492401Y-1733244D01*
X-4492401Y-1751206D01*
X-4434525Y-1809082D01*
X-4802152Y-2176709D01*
X-4802152Y-3992333D01*
X-4632201Y-4162284D01*
X-4747259Y-4277342D01*
X-4747259Y-4485658D01*
X-4599958Y-4632959D01*
X-4391642Y-4632959D01*
X-4244341Y-4485658D01*
X-4244341Y-4277342D01*
X-4326067Y-4195616D01*
X-4308276Y-4195616D01*
X-3703292Y-4800600D01*
X-4815082Y-4800600D01*
X-4815082Y+4788932D01*
X-3787101Y+4790283D01*
X-3799742Y+4777642D01*
X-4772659Y+4404342D02*
X-4772659Y+4612658D01*
X-4625358Y+4759959D01*
X-4417042Y+4759959D01*
X-4269741Y+4612658D01*
X-4269741Y+4404342D01*
X-4417042Y+4257041D01*
X-4625358Y+4257041D01*
X-4772659Y+4404342D01*
X+1842028Y-1562099D02*
X+1663172Y-1562099D01*
X+1536701Y-1435628D01*
X+1536701Y-1256772D01*
X+1663172Y-1130301D01*
X+1842028Y-1130301D01*
X+1968499Y-1256772D01*
X+1968499Y-1435628D01*
X+1842028Y-1562099D01*
X+4849618Y-4800600D02*
X+3997946Y-4800600D01*
X+4076699Y-4721847D01*
X+4076699Y-4632043D01*
X+4206241Y-4502501D01*
X+4206241Y-4574558D01*
X+4353542Y-4721859D01*
X+4561858Y-4721859D01*
X+4709159Y-4574558D01*
X+4709159Y-4366242D01*
X+4561858Y-4218941D01*
X+4353542Y-4218941D01*
X+4305299Y-4267184D01*
X+4305299Y-3712758D01*
X+4373157Y-3644900D01*
X+4516313Y-3644900D01*
X+4516313Y-3606425D01*
X+4554788Y-3644900D01*
X+4681040Y-3644900D01*
X+4770313Y-3555627D01*
X+4770313Y-3429375D01*
X+4681040Y-3340102D01*
X+4627157Y-3340102D01*
X+4605213Y-3318158D01*
X+4605213Y-2882900D01*
X+4681040Y-2882900D01*
X+4770313Y-2793627D01*
X+4770313Y-2704990D01*
X+4849618Y-2553343D01*
X+4849618Y-4800600D01*
X+4076701Y-4308757D02*
X+3915057Y-4470401D01*
X+3825253Y-4470401D01*
X+3721101Y-4574553D01*
X+3721101Y-4721847D01*
X+3799854Y-4800600D01*
X+2981946Y-4800600D01*
X+3060699Y-4721847D01*
X+3060699Y-4574553D01*
X+2956547Y-4470401D01*
X+2809253Y-4470401D01*
X+2705101Y-4574553D01*
X+2705101Y-4610101D01*
X+1726281Y-4610101D01*
X+1764383Y-4571999D01*
X+1830605Y-4571999D01*
X+1843305Y-4559299D01*
X+2221583Y-4559299D01*
X+2288539Y-4492343D01*
X+2288539Y-4429759D01*
X+2364739Y-4429759D01*
X+2364739Y-4129663D01*
X+2591175Y-4356099D01*
X+2659032Y-4356099D01*
X+2709832Y-4406899D01*
X+2878168Y-4406899D01*
X+2997199Y-4287868D01*
X+2997199Y-4119532D01*
X+2965450Y-4087783D01*
X+2965450Y-3971641D01*
X+3007008Y-4013199D01*
X+3444253Y-4013199D01*
X+3507753Y-4076699D01*
X+3649634Y-4076699D01*
X+3606801Y-4119532D01*
X+3606801Y-4287868D01*
X+3725832Y-4406899D01*
X+3894168Y-4406899D01*
X+4013199Y-4287868D01*
X+4013199Y-4119532D01*
X+3949699Y-4056032D01*
X+3949699Y-4036047D01*
X+4013199Y-3972547D01*
X+4013199Y-3890976D01*
X+4021025Y-3872083D01*
X+4013199Y-3864257D01*
X+4013199Y-3825253D01*
X+3979245Y-3791299D01*
X+4076701Y-3791299D01*
X+4076701Y-4308757D01*
D16*
X+3429000Y+4445000D03*
X+3175000Y+4445000D03*
X+2921000Y+4445000D03*
X+2159000Y+4445000D03*
X+1905000Y+4445000D03*
X+1651000Y+4445000D03*
X+889000Y+4445000D03*
X+635000Y+4445000D03*
X+381000Y+4445000D03*
X-381000Y+4445000D03*
X-635000Y+4445000D03*
X-889000Y+4445000D03*
X-1930400Y+4457700D03*
X-2184400Y+4457700D03*
X-2438400Y+4457700D03*
X-3175000Y+4445000D03*
X-3429000Y+4445000D03*
X-3683000Y+4445000D03*
D17*
X+4000500Y+2082800D03*
X+4000500Y+1320800D03*
D18*
X+2546351Y-3625849D03*
X+2800351Y-3625849D03*
X+3054351Y-3625849D03*
X+3308351Y-3625849D03*
X+3308351Y-2863849D03*
X+3054351Y-2863849D03*
X+2800351Y-2863849D03*
X+2546351Y-2863849D03*
D19*
X+2743200Y-2260600D03*
X+2743200Y-1498600D03*
D70*
X+1955800Y+1981200D03*
X+1968500Y-584200D03*
D17*
X-4038600Y+2070100D03*
X-4038600Y+1308100D03*
D19*
X-3987800Y+482600D03*
X-3987800Y-279400D03*
D71*
X+2679700Y+3251200D03*
X-2717800Y+3251200D03*
X-1473200Y+3251200D03*
X+1727200Y+3251200D03*
D20*
X+3810000Y-4203700D03*
X+2794000Y-4203700D03*
D21*
X+3581400Y-3898900D03*
X+3835400Y-3898900D03*
X+3810000Y-2857500D03*
X+3810000Y-3613500D03*
X+3423000Y-2603500D03*
X+2667000Y-2603500D03*
X+3581400Y-3613500D03*
X+3581400Y-2857500D03*
D22*
X-4495800Y-4381500D03*
X+4457700Y-4470400D03*
D16*
X+4394200Y-2070100D03*
X+4140200Y-2070100D03*
X+3886200Y-2070100D03*
D17*
X+4394200Y+368300D03*
X+3893820Y+368300D03*
D16*
X+215900Y-1905000D03*
X-38100Y-1905000D03*
X-292100Y-1905000D03*
D17*
X+215900Y+533400D03*
X-284480Y+533400D03*
D22*
X-4521200Y+4508500D03*
X+4432300Y+4419600D03*
D19*
X-2578100Y+1371600D03*
X-2578100Y+2133600D03*
X-584200Y+1358900D03*
X-584200Y+2120900D03*
X-1612900Y+787400D03*
X-1612900Y+25400D03*
D23*
X-952500Y-1054100D03*
X-1206500Y-1054100D03*
X-1460500Y-1054100D03*
X-1714500Y-1054100D03*
X-1968500Y-1054100D03*
X-2222500Y-1054100D03*
X-2476500Y-1054100D03*
X-2730500Y-1054100D03*
X-2984500Y-1054100D03*
X-3238500Y-1054100D03*
X-3492500Y-1054100D03*
X-3746500Y-1054100D03*
X-4000500Y-1054100D03*
X-4254500Y-1054100D03*
X-4508500Y-1054100D03*
X-4508500Y-2578100D03*
X-4254500Y-2578100D03*
X-4000500Y-2578100D03*
X-3746500Y-2578100D03*
X-3492500Y-2578100D03*
X-3238500Y-2578100D03*
X-2984500Y-2578100D03*
X-2730500Y-2578100D03*
X-2476500Y-2578100D03*
X-2222500Y-2578100D03*
X-1968500Y-2578100D03*
X-1714500Y-2578100D03*
X-1460500Y-2578100D03*
X-1206500Y-2578100D03*
X-952500Y-2578100D03*
D17*
X-1079500Y-3302000D03*
X-571500Y-3302000D03*
X-825500Y-3048000D03*
D21*
X+4025900Y-3613500D03*
X+4025900Y-2857500D03*
X-68580Y-2501900D03*
X-68580Y-3257900D03*
X+4508500Y+3886200D03*
X+4508500Y+2870200D03*
X+2882900Y-4648200D03*
X+3898900Y-4648200D03*
X+1978660Y-2275840D03*
X+1222660Y-2275840D03*
X+160020Y-2520600D03*
X+160020Y-3276600D03*
D24*
X+4363914Y-3492501D03*
D25*
X+4617914Y-3492501D03*
X+4617914Y-2730501D03*
X+4363914Y-2730501D03*
D19*
X+1752600Y-1854200D03*
X+1752600Y-1346200D03*
D16*
X-4381500Y-3835400D03*
X-3873500Y-3835400D03*
X-3873500Y-3060700D03*
X-4381500Y-3060700D03*
X-3238500Y-3822700D03*
X-2730500Y-3822700D03*
X-2730500Y-3048000D03*
X-3238500Y-3048000D03*
X-2159000Y-3822700D03*
X-1651000Y-3822700D03*
X-1651000Y-3048000D03*
X-2159000Y-3048000D03*
D19*
X+1785620Y-2738120D03*
X+1785620Y-3246120D03*
D20*
X+1940560Y-3860800D03*
X+924560Y-3860800D03*
X-1645920Y-4231640D03*
X-629920Y-4231640D03*
D16*
X-1722120Y-637540D03*
X-1976120Y-637540D03*
X-2230120Y-637540D03*
X-2484120Y-637540D03*
D21*
X+388620Y-2520600D03*
X+388620Y-3276600D03*
X+607073Y-3257901D03*
X+607073Y-2501901D03*
D24*
X-160020Y-4495800D03*
D25*
X+93980Y-4495800D03*
X+347980Y-4495800D03*
X+601980Y-4495800D03*
X+601980Y-3733800D03*
X+347980Y-3733800D03*
X+93980Y-3733800D03*
X-160020Y-3733800D03*
D26*
X+949960Y-4490720D03*
X+1153160Y-4490720D03*
X+1356360Y-4490720D03*
D16*
X+2174240Y-4239260D03*
X+1920240Y-4239260D03*
X+1666240Y-4239260D03*
D27*
X+899160Y-2032000D03*
X+899160Y-3556000D03*
D28*
X-4826000Y-4800600D02*
X+4851400Y-4800600D01*
X+4851400Y+4813300D01*
X-4826000Y+4813300D01*
X-4826000Y-4800600D01*
M02*
